<mxfile host="app.diagrams.net" modified="2023-07-29T13:42:09.220Z" agent="Mozilla/5.0 (X11; Linux x86_64) AppleWebKit/537.36 (KHTML, like Gecko) Chrome/111.0.0.0 Safari/537.36" etag="55jLrTjFLTCtWZ_Hc9D7" version="21.6.5" type="onedrive" pages="3">
  <diagram id="R2lEEEUBdFMjLlhIrx00" name="Page-1">
    <mxGraphModel dx="4187" dy="3378" grid="1" gridSize="10" guides="1" tooltips="1" connect="1" arrows="1" fold="1" page="1" pageScale="1" pageWidth="2500" pageHeight="2500" math="0" shadow="0" extFonts="Permanent Marker^https://fonts.googleapis.com/css?family=Permanent+Marker">
      <root>
        <mxCell id="0" />
        <mxCell id="1" parent="0" />
        <mxCell id="NKGvH9Crkrx0q5OSbga0-109" style="edgeStyle=orthogonalEdgeStyle;rounded=1;orthogonalLoop=1;jettySize=auto;html=1;entryX=0.5;entryY=1;entryDx=0;entryDy=0;endArrow=none;endFill=0;strokeWidth=2;strokeColor=#FF3333;exitX=1;exitY=0.75;exitDx=0;exitDy=0;" parent="1" source="gfvizb78fDKN9hPaAQz3-2" target="NKGvH9Crkrx0q5OSbga0-61" edge="1">
          <mxGeometry relative="1" as="geometry" />
        </mxCell>
        <mxCell id="NKGvH9Crkrx0q5OSbga0-114" style="edgeStyle=orthogonalEdgeStyle;rounded=1;orthogonalLoop=1;jettySize=auto;html=1;entryX=0.5;entryY=1;entryDx=0;entryDy=0;endArrow=none;endFill=0;strokeWidth=2;strokeColor=#FF3333;exitX=0.95;exitY=0.513;exitDx=0;exitDy=0;exitPerimeter=0;" parent="1" source="gfvizb78fDKN9hPaAQz3-2" target="NKGvH9Crkrx0q5OSbga0-59" edge="1">
          <mxGeometry relative="1" as="geometry">
            <mxPoint x="540" y="360" as="sourcePoint" />
          </mxGeometry>
        </mxCell>
        <mxCell id="FoAWJP59tls7MiWZvlNt-28" style="edgeStyle=orthogonalEdgeStyle;shape=connector;rounded=0;orthogonalLoop=1;jettySize=auto;html=1;labelBackgroundColor=default;strokeColor=#FF3333;strokeWidth=2;fontFamily=Helvetica;fontSize=11;fontColor=default;endArrow=none;endFill=0;" edge="1" parent="1" source="gfvizb78fDKN9hPaAQz3-2">
          <mxGeometry relative="1" as="geometry">
            <mxPoint x="40" y="360" as="targetPoint" />
          </mxGeometry>
        </mxCell>
        <mxCell id="gfvizb78fDKN9hPaAQz3-2" value="&lt;font style=&quot;font-size: 15px;&quot;&gt;Film&lt;/font&gt;" style="rounded=1;arcSize=10;whiteSpace=wrap;html=1;align=center;strokeColor=#FF3333;strokeWidth=3;" parent="1" vertex="1">
          <mxGeometry x="435" y="340" width="100" height="40" as="geometry" />
        </mxCell>
        <mxCell id="gfvizb78fDKN9hPaAQz3-11" value="&lt;font style=&quot;font-size: 15px;&quot;&gt;Persona&lt;/font&gt;" style="rounded=1;arcSize=10;whiteSpace=wrap;html=1;align=center;strokeWidth=3;strokeColor=#FF3333;" parent="1" vertex="1">
          <mxGeometry x="225" y="60" width="100" height="40" as="geometry" />
        </mxCell>
        <mxCell id="NKGvH9Crkrx0q5OSbga0-91" style="edgeStyle=orthogonalEdgeStyle;rounded=1;orthogonalLoop=1;jettySize=auto;html=1;exitX=0.5;exitY=0;exitDx=0;exitDy=0;endArrow=none;endFill=0;strokeWidth=2;strokeColor=#FF3333;" parent="1" source="gfvizb78fDKN9hPaAQz3-13" edge="1">
          <mxGeometry relative="1" as="geometry">
            <mxPoint x="275.00000000000045" y="139.9999999999999" as="targetPoint" />
            <Array as="points">
              <mxPoint x="345" y="140" />
            </Array>
          </mxGeometry>
        </mxCell>
        <mxCell id="gfvizb78fDKN9hPaAQz3-13" value="&lt;font style=&quot;font-size: 15px;&quot;&gt;Regista&lt;/font&gt;" style="rounded=1;arcSize=10;whiteSpace=wrap;html=1;align=center;strokeWidth=3;strokeColor=#FF3333;" parent="1" vertex="1">
          <mxGeometry x="295" y="180" width="100" height="40" as="geometry" />
        </mxCell>
        <mxCell id="NKGvH9Crkrx0q5OSbga0-92" style="edgeStyle=orthogonalEdgeStyle;rounded=1;orthogonalLoop=1;jettySize=auto;html=1;exitX=0.5;exitY=0;exitDx=0;exitDy=0;endArrow=none;endFill=0;strokeWidth=2;strokeColor=#FF3333;" parent="1" source="gfvizb78fDKN9hPaAQz3-14" edge="1">
          <mxGeometry relative="1" as="geometry">
            <mxPoint x="275" y="140" as="targetPoint" />
            <Array as="points">
              <mxPoint x="205" y="140" />
            </Array>
          </mxGeometry>
        </mxCell>
        <mxCell id="gfvizb78fDKN9hPaAQz3-14" value="&lt;span style=&quot;font-size: 15px;&quot;&gt;Attore&lt;/span&gt;" style="rounded=1;arcSize=10;whiteSpace=wrap;html=1;align=center;strokeWidth=3;strokeColor=#FF3333;" parent="1" vertex="1">
          <mxGeometry x="155" y="180" width="100" height="40" as="geometry" />
        </mxCell>
        <mxCell id="gfvizb78fDKN9hPaAQz3-21" value="" style="shape=flexArrow;endArrow=classic;html=1;rounded=0;entryX=0.5;entryY=1;entryDx=0;entryDy=0;fillColor=#FF3333;strokeColor=#FF3333;" parent="1" target="gfvizb78fDKN9hPaAQz3-11" edge="1">
          <mxGeometry width="50" height="50" relative="1" as="geometry">
            <mxPoint x="275" y="140" as="sourcePoint" />
            <mxPoint x="345" y="220" as="targetPoint" />
          </mxGeometry>
        </mxCell>
        <mxCell id="NKGvH9Crkrx0q5OSbga0-81" style="edgeStyle=orthogonalEdgeStyle;rounded=1;orthogonalLoop=1;jettySize=auto;html=1;entryX=0;entryY=0.25;entryDx=0;entryDy=0;exitX=0.5;exitY=1;exitDx=0;exitDy=0;endArrow=none;endFill=0;strokeColor=#FF3333;strokeWidth=2;" parent="1" source="gfvizb78fDKN9hPaAQz3-22" target="gfvizb78fDKN9hPaAQz3-2" edge="1">
          <mxGeometry relative="1" as="geometry">
            <Array as="points">
              <mxPoint x="340" y="350" />
            </Array>
          </mxGeometry>
        </mxCell>
        <mxCell id="NKGvH9Crkrx0q5OSbga0-98" style="edgeStyle=orthogonalEdgeStyle;rounded=1;orthogonalLoop=1;jettySize=auto;html=1;entryX=0.5;entryY=1;entryDx=0;entryDy=0;strokeWidth=2;endArrow=none;endFill=0;strokeColor=#FF3333;" parent="1" source="gfvizb78fDKN9hPaAQz3-22" target="gfvizb78fDKN9hPaAQz3-13" edge="1">
          <mxGeometry relative="1" as="geometry" />
        </mxCell>
        <mxCell id="gfvizb78fDKN9hPaAQz3-22" value="&lt;font style=&quot;font-size: 15px;&quot;&gt;Direzione&lt;/font&gt;" style="shape=rhombus;perimeter=rhombusPerimeter;whiteSpace=wrap;html=1;align=center;strokeWidth=3;strokeColor=#FF3333;" parent="1" vertex="1">
          <mxGeometry x="285" y="250" width="120" height="60" as="geometry" />
        </mxCell>
        <mxCell id="gfvizb78fDKN9hPaAQz3-23" value="&lt;font style=&quot;font-size: 15px;&quot;&gt;(1, 1)&lt;/font&gt;" style="text;html=1;strokeColor=none;fillColor=none;align=center;verticalAlign=middle;whiteSpace=wrap;rounded=0;" parent="1" vertex="1">
          <mxGeometry x="350" y="290" width="60" height="30" as="geometry" />
        </mxCell>
        <mxCell id="gfvizb78fDKN9hPaAQz3-24" value="&lt;font style=&quot;font-size: 15px;&quot;&gt;(1, N)&lt;/font&gt;" style="text;html=1;strokeColor=none;fillColor=none;align=center;verticalAlign=middle;whiteSpace=wrap;rounded=0;" parent="1" vertex="1">
          <mxGeometry x="350" y="230" width="60" height="30" as="geometry" />
        </mxCell>
        <mxCell id="NKGvH9Crkrx0q5OSbga0-96" style="edgeStyle=orthogonalEdgeStyle;rounded=1;orthogonalLoop=1;jettySize=auto;html=1;entryX=0.5;entryY=1;entryDx=0;entryDy=0;endArrow=none;endFill=0;strokeWidth=2;strokeColor=#FF3333;" parent="1" source="gfvizb78fDKN9hPaAQz3-25" target="gfvizb78fDKN9hPaAQz3-14" edge="1">
          <mxGeometry relative="1" as="geometry" />
        </mxCell>
        <mxCell id="NKGvH9Crkrx0q5OSbga0-97" style="edgeStyle=orthogonalEdgeStyle;rounded=1;orthogonalLoop=1;jettySize=auto;html=1;entryX=0;entryY=0.75;entryDx=0;entryDy=0;exitX=0.5;exitY=1;exitDx=0;exitDy=0;endArrow=none;endFill=0;strokeWidth=2;strokeColor=#FF3333;" parent="1" source="gfvizb78fDKN9hPaAQz3-25" target="gfvizb78fDKN9hPaAQz3-2" edge="1">
          <mxGeometry relative="1" as="geometry">
            <mxPoint x="200.00000000000045" y="359.9999999999999" as="targetPoint" />
          </mxGeometry>
        </mxCell>
        <mxCell id="gfvizb78fDKN9hPaAQz3-25" value="&lt;font style=&quot;font-size: 15px;&quot;&gt;Partecipazione&lt;/font&gt;" style="shape=rhombus;perimeter=rhombusPerimeter;whiteSpace=wrap;html=1;align=center;strokeWidth=3;strokeColor=#FF3333;" parent="1" vertex="1">
          <mxGeometry x="145" y="250" width="120" height="60" as="geometry" />
        </mxCell>
        <mxCell id="gfvizb78fDKN9hPaAQz3-26" value="&lt;font style=&quot;font-size: 15px;&quot;&gt;(1, N)&lt;/font&gt;" style="text;html=1;strokeColor=none;fillColor=none;align=center;verticalAlign=middle;whiteSpace=wrap;rounded=0;" parent="1" vertex="1">
          <mxGeometry x="200" y="300" width="60" height="30" as="geometry" />
        </mxCell>
        <mxCell id="gfvizb78fDKN9hPaAQz3-27" value="&lt;font style=&quot;font-size: 15px;&quot;&gt;(1, N)&lt;/font&gt;" style="text;html=1;strokeColor=none;fillColor=none;align=center;verticalAlign=middle;whiteSpace=wrap;rounded=0;" parent="1" vertex="1">
          <mxGeometry x="205" y="230" width="60" height="30" as="geometry" />
        </mxCell>
        <mxCell id="NKGvH9Crkrx0q5OSbga0-107" style="edgeStyle=orthogonalEdgeStyle;rounded=1;orthogonalLoop=1;jettySize=auto;html=1;strokeWidth=2;endArrow=none;endFill=0;strokeColor=#FF3333;" parent="1" source="gfvizb78fDKN9hPaAQz3-34" target="gfvizb78fDKN9hPaAQz3-35" edge="1">
          <mxGeometry relative="1" as="geometry" />
        </mxCell>
        <mxCell id="gfvizb78fDKN9hPaAQz3-34" value="&lt;font style=&quot;font-size: 15px;&quot;&gt;Paese&lt;/font&gt;" style="rounded=1;arcSize=10;whiteSpace=wrap;html=1;align=center;strokeWidth=3;strokeColor=#FF3333;" parent="1" vertex="1">
          <mxGeometry x="550" y="655" width="100" height="40" as="geometry" />
        </mxCell>
        <mxCell id="NKGvH9Crkrx0q5OSbga0-108" style="edgeStyle=orthogonalEdgeStyle;rounded=1;orthogonalLoop=1;jettySize=auto;html=1;entryX=1;entryY=0.5;entryDx=0;entryDy=0;exitX=0;exitY=0.5;exitDx=0;exitDy=0;endArrow=none;endFill=0;strokeWidth=2;strokeColor=#FF3333;" parent="1" source="gfvizb78fDKN9hPaAQz3-35" target="FoAWJP59tls7MiWZvlNt-83" edge="1">
          <mxGeometry relative="1" as="geometry" />
        </mxCell>
        <mxCell id="gfvizb78fDKN9hPaAQz3-35" value="&lt;font style=&quot;font-size: 15px;&quot;&gt;Appartenenza&lt;/font&gt;" style="shape=rhombus;perimeter=rhombusPerimeter;whiteSpace=wrap;html=1;align=center;strokeWidth=3;strokeColor=#FF3333;" parent="1" vertex="1">
          <mxGeometry x="540" y="470" width="120" height="60" as="geometry" />
        </mxCell>
        <mxCell id="gfvizb78fDKN9hPaAQz3-36" value="&lt;font style=&quot;font-size: 15px;&quot;&gt;(1, 1)&lt;/font&gt;" style="text;html=1;strokeColor=none;fillColor=none;align=center;verticalAlign=middle;whiteSpace=wrap;rounded=0;" parent="1" vertex="1">
          <mxGeometry x="600" y="615" width="60" height="30" as="geometry" />
        </mxCell>
        <mxCell id="gfvizb78fDKN9hPaAQz3-37" value="&lt;font style=&quot;font-size: 15px;&quot;&gt;(1, N)&lt;/font&gt;" style="text;html=1;strokeColor=none;fillColor=none;align=center;verticalAlign=middle;whiteSpace=wrap;rounded=0;" parent="1" vertex="1">
          <mxGeometry x="20" y="825" width="60" height="30" as="geometry" />
        </mxCell>
        <mxCell id="NKGvH9Crkrx0q5OSbga0-1" value="&lt;font style=&quot;font-size: 15px;&quot;&gt;Genere&lt;/font&gt;" style="rounded=1;arcSize=10;whiteSpace=wrap;html=1;align=center;strokeColor=#FF3333;strokeWidth=3;" parent="1" vertex="1">
          <mxGeometry x="435" y="180" width="100" height="40" as="geometry" />
        </mxCell>
        <mxCell id="NKGvH9Crkrx0q5OSbga0-2" value="&lt;font style=&quot;font-size: 15px;&quot;&gt;Lingua&lt;/font&gt;" style="rounded=1;arcSize=10;whiteSpace=wrap;html=1;align=center;strokeColor=#FF3333;strokeWidth=3;" parent="1" vertex="1">
          <mxGeometry x="-120" y="655" width="100" height="40" as="geometry" />
        </mxCell>
        <mxCell id="NKGvH9Crkrx0q5OSbga0-104" style="edgeStyle=orthogonalEdgeStyle;rounded=1;orthogonalLoop=1;jettySize=auto;html=1;entryX=0.5;entryY=0;entryDx=0;entryDy=0;endArrow=none;endFill=0;strokeWidth=2;strokeColor=#FF3333;" parent="1" source="NKGvH9Crkrx0q5OSbga0-4" target="gfvizb78fDKN9hPaAQz3-2" edge="1">
          <mxGeometry relative="1" as="geometry" />
        </mxCell>
        <mxCell id="NKGvH9Crkrx0q5OSbga0-105" style="edgeStyle=orthogonalEdgeStyle;rounded=1;orthogonalLoop=1;jettySize=auto;html=1;entryX=0.5;entryY=1;entryDx=0;entryDy=0;strokeColor=#FF3333;strokeWidth=2;endArrow=none;endFill=0;" parent="1" source="NKGvH9Crkrx0q5OSbga0-4" target="NKGvH9Crkrx0q5OSbga0-1" edge="1">
          <mxGeometry relative="1" as="geometry" />
        </mxCell>
        <mxCell id="NKGvH9Crkrx0q5OSbga0-4" value="&lt;font style=&quot;font-size: 15px;&quot;&gt;GenereFilm&lt;/font&gt;" style="shape=rhombus;perimeter=rhombusPerimeter;whiteSpace=wrap;html=1;align=center;strokeWidth=3;strokeColor=#FF3333;" parent="1" vertex="1">
          <mxGeometry x="425" y="250" width="120" height="60" as="geometry" />
        </mxCell>
        <mxCell id="NKGvH9Crkrx0q5OSbga0-5" value="&lt;font style=&quot;font-size: 15px;&quot;&gt;(1, 1)&lt;/font&gt;" style="text;html=1;strokeColor=none;fillColor=none;align=center;verticalAlign=middle;whiteSpace=wrap;rounded=0;" parent="1" vertex="1">
          <mxGeometry x="485" y="300" width="60" height="30" as="geometry" />
        </mxCell>
        <mxCell id="NKGvH9Crkrx0q5OSbga0-6" value="&lt;font style=&quot;font-size: 15px;&quot;&gt;(1, N)&lt;/font&gt;" style="text;html=1;strokeColor=none;fillColor=none;align=center;verticalAlign=middle;whiteSpace=wrap;rounded=0;" parent="1" vertex="1">
          <mxGeometry x="485" y="225" width="60" height="30" as="geometry" />
        </mxCell>
        <mxCell id="NKGvH9Crkrx0q5OSbga0-129" style="edgeStyle=orthogonalEdgeStyle;shape=connector;rounded=1;orthogonalLoop=1;jettySize=auto;html=1;labelBackgroundColor=default;strokeColor=#FF3333;strokeWidth=2;fontFamily=Helvetica;fontSize=11;fontColor=default;endArrow=none;endFill=0;" parent="1" source="NKGvH9Crkrx0q5OSbga0-9" target="NKGvH9Crkrx0q5OSbga0-44" edge="1">
          <mxGeometry relative="1" as="geometry" />
        </mxCell>
        <mxCell id="NKGvH9Crkrx0q5OSbga0-145" style="edgeStyle=orthogonalEdgeStyle;shape=connector;rounded=1;orthogonalLoop=1;jettySize=auto;html=1;entryX=0.5;entryY=0;entryDx=0;entryDy=0;labelBackgroundColor=default;strokeColor=#00FF00;strokeWidth=2;fontFamily=Helvetica;fontSize=11;fontColor=default;endArrow=none;endFill=0;" parent="1" source="NKGvH9Crkrx0q5OSbga0-9" target="NKGvH9Crkrx0q5OSbga0-140" edge="1">
          <mxGeometry relative="1" as="geometry" />
        </mxCell>
        <mxCell id="NKGvH9Crkrx0q5OSbga0-9" value="&lt;font style=&quot;font-size: 15px;&quot;&gt;File&lt;/font&gt;" style="rounded=1;arcSize=10;whiteSpace=wrap;html=1;align=center;strokeColor=#00FF00;strokeWidth=3;" parent="1" vertex="1">
          <mxGeometry x="275" y="655" width="100" height="40" as="geometry" />
        </mxCell>
        <mxCell id="NKGvH9Crkrx0q5OSbga0-75" style="edgeStyle=orthogonalEdgeStyle;rounded=1;orthogonalLoop=1;jettySize=auto;html=1;exitX=1;exitY=0.5;exitDx=0;exitDy=0;entryX=0;entryY=0.25;entryDx=0;entryDy=0;strokeColor=#FF3333;endArrow=none;endFill=0;strokeWidth=2;" parent="1" source="NKGvH9Crkrx0q5OSbga0-32" target="NKGvH9Crkrx0q5OSbga0-9" edge="1">
          <mxGeometry relative="1" as="geometry" />
        </mxCell>
        <mxCell id="NKGvH9Crkrx0q5OSbga0-127" style="edgeStyle=orthogonalEdgeStyle;shape=connector;rounded=1;orthogonalLoop=1;jettySize=auto;html=1;entryX=1;entryY=0.25;entryDx=0;entryDy=0;labelBackgroundColor=default;strokeColor=#FF3333;strokeWidth=2;fontFamily=Helvetica;fontSize=11;fontColor=default;endArrow=none;endFill=0;" parent="1" source="NKGvH9Crkrx0q5OSbga0-32" target="NKGvH9Crkrx0q5OSbga0-2" edge="1">
          <mxGeometry relative="1" as="geometry" />
        </mxCell>
        <mxCell id="NKGvH9Crkrx0q5OSbga0-32" value="&lt;font style=&quot;font-size: 15px;&quot;&gt;Sottotitolaggio&lt;/font&gt;" style="shape=rhombus;perimeter=rhombusPerimeter;whiteSpace=wrap;html=1;align=center;strokeWidth=3;strokeColor=#FF3333;" parent="1" vertex="1">
          <mxGeometry x="50" y="605" width="120" height="60" as="geometry" />
        </mxCell>
        <mxCell id="NKGvH9Crkrx0q5OSbga0-76" style="edgeStyle=orthogonalEdgeStyle;rounded=1;orthogonalLoop=1;jettySize=auto;html=1;exitX=1;exitY=0.5;exitDx=0;exitDy=0;entryX=0;entryY=0.75;entryDx=0;entryDy=0;endArrow=none;endFill=0;strokeColor=#FF3333;strokeWidth=2;" parent="1" source="NKGvH9Crkrx0q5OSbga0-33" target="NKGvH9Crkrx0q5OSbga0-9" edge="1">
          <mxGeometry relative="1" as="geometry" />
        </mxCell>
        <mxCell id="NKGvH9Crkrx0q5OSbga0-128" style="edgeStyle=orthogonalEdgeStyle;shape=connector;rounded=1;orthogonalLoop=1;jettySize=auto;html=1;entryX=1;entryY=0.75;entryDx=0;entryDy=0;labelBackgroundColor=default;strokeColor=#FF3333;strokeWidth=2;fontFamily=Helvetica;fontSize=11;fontColor=default;endArrow=none;endFill=0;" parent="1" source="NKGvH9Crkrx0q5OSbga0-33" target="NKGvH9Crkrx0q5OSbga0-2" edge="1">
          <mxGeometry relative="1" as="geometry" />
        </mxCell>
        <mxCell id="NKGvH9Crkrx0q5OSbga0-33" value="&lt;font style=&quot;font-size: 15px;&quot;&gt;Doppiaggio&lt;/font&gt;" style="shape=rhombus;perimeter=rhombusPerimeter;whiteSpace=wrap;html=1;align=center;strokeWidth=3;strokeColor=#FF3333;" parent="1" vertex="1">
          <mxGeometry x="50" y="690" width="120" height="60" as="geometry" />
        </mxCell>
        <mxCell id="NKGvH9Crkrx0q5OSbga0-40" value="&lt;font style=&quot;font-size: 15px;&quot;&gt;(0,N)&lt;/font&gt;" style="text;html=1;strokeColor=none;fillColor=none;align=center;verticalAlign=middle;whiteSpace=wrap;rounded=0;" parent="1" vertex="1">
          <mxGeometry x="10" y="595" width="60" height="30" as="geometry" />
        </mxCell>
        <mxCell id="NKGvH9Crkrx0q5OSbga0-41" value="&lt;font style=&quot;font-size: 15px;&quot;&gt;(0,N)&lt;/font&gt;" style="text;html=1;strokeColor=none;fillColor=none;align=center;verticalAlign=middle;whiteSpace=wrap;rounded=0;" parent="1" vertex="1">
          <mxGeometry x="20" y="725" width="60" height="30" as="geometry" />
        </mxCell>
        <mxCell id="NKGvH9Crkrx0q5OSbga0-42" value="&lt;font style=&quot;font-size: 15px;&quot;&gt;(1,N)&lt;/font&gt;" style="text;html=1;strokeColor=none;fillColor=none;align=center;verticalAlign=middle;whiteSpace=wrap;rounded=0;" parent="1" vertex="1">
          <mxGeometry x="140" y="725" width="60" height="30" as="geometry" />
        </mxCell>
        <mxCell id="NKGvH9Crkrx0q5OSbga0-43" value="&lt;font style=&quot;font-size: 15px;&quot;&gt;(0,N)&lt;/font&gt;" style="text;html=1;strokeColor=none;fillColor=none;align=center;verticalAlign=middle;whiteSpace=wrap;rounded=0;" parent="1" vertex="1">
          <mxGeometry x="140" y="595" width="60" height="30" as="geometry" />
        </mxCell>
        <mxCell id="FoAWJP59tls7MiWZvlNt-233" style="edgeStyle=orthogonalEdgeStyle;shape=connector;rounded=0;orthogonalLoop=1;jettySize=auto;html=1;entryX=0.25;entryY=1;entryDx=0;entryDy=0;labelBackgroundColor=default;strokeColor=#FF3333;strokeWidth=2;fontFamily=Helvetica;fontSize=11;fontColor=default;endArrow=none;endFill=0;exitX=0.5;exitY=0;exitDx=0;exitDy=0;" edge="1" parent="1" source="NKGvH9Crkrx0q5OSbga0-44" target="gfvizb78fDKN9hPaAQz3-2">
          <mxGeometry relative="1" as="geometry">
            <mxPoint x="330" y="550" as="sourcePoint" />
            <Array as="points">
              <mxPoint x="325" y="400" />
              <mxPoint x="460" y="400" />
            </Array>
          </mxGeometry>
        </mxCell>
        <mxCell id="NKGvH9Crkrx0q5OSbga0-44" value="&lt;font style=&quot;font-size: 15px;&quot;&gt;FileFilm&lt;/font&gt;" style="shape=rhombus;perimeter=rhombusPerimeter;whiteSpace=wrap;html=1;align=center;strokeWidth=3;strokeColor=#FF3333;" parent="1" vertex="1">
          <mxGeometry x="265" y="555" width="120" height="60" as="geometry" />
        </mxCell>
        <mxCell id="NKGvH9Crkrx0q5OSbga0-45" value="&lt;font style=&quot;font-size: 15px;&quot;&gt;(1,N)&lt;/font&gt;" style="text;html=1;strokeColor=none;fillColor=none;align=center;verticalAlign=middle;whiteSpace=wrap;rounded=0;" parent="1" vertex="1">
          <mxGeometry x="362.5" y="545" width="60" height="30" as="geometry" />
        </mxCell>
        <mxCell id="NKGvH9Crkrx0q5OSbga0-46" value="&lt;font style=&quot;font-size: 15px;&quot;&gt;(1,1)&lt;/font&gt;" style="text;html=1;strokeColor=none;fillColor=none;align=center;verticalAlign=middle;whiteSpace=wrap;rounded=0;" parent="1" vertex="1">
          <mxGeometry x="320" y="605" width="60" height="30" as="geometry" />
        </mxCell>
        <mxCell id="NKGvH9Crkrx0q5OSbga0-52" value="&lt;font style=&quot;font-size: 15px;&quot;&gt;Recensore&lt;/font&gt;" style="rounded=1;arcSize=10;whiteSpace=wrap;html=1;align=center;strokeWidth=3;strokeColor=#FF3333;" parent="1" vertex="1">
          <mxGeometry x="670" y="60" width="100" height="40" as="geometry" />
        </mxCell>
        <mxCell id="NKGvH9Crkrx0q5OSbga0-112" style="edgeStyle=orthogonalEdgeStyle;rounded=1;orthogonalLoop=1;jettySize=auto;html=1;exitX=0.5;exitY=0;exitDx=0;exitDy=0;endArrow=none;endFill=0;strokeWidth=2;strokeColor=#FF3333;" parent="1" source="NKGvH9Crkrx0q5OSbga0-53" edge="1">
          <mxGeometry relative="1" as="geometry">
            <mxPoint x="720" y="139.9999999999999" as="targetPoint" />
            <Array as="points">
              <mxPoint x="790" y="140" />
            </Array>
          </mxGeometry>
        </mxCell>
        <mxCell id="NKGvH9Crkrx0q5OSbga0-53" value="&lt;font style=&quot;font-size: 15px;&quot;&gt;Utente&lt;/font&gt;" style="rounded=1;arcSize=10;whiteSpace=wrap;html=1;align=center;strokeWidth=3;strokeColor=#33FFFF;" parent="1" vertex="1">
          <mxGeometry x="740" y="180" width="100" height="40" as="geometry" />
        </mxCell>
        <mxCell id="NKGvH9Crkrx0q5OSbga0-111" style="edgeStyle=orthogonalEdgeStyle;rounded=1;orthogonalLoop=1;jettySize=auto;html=1;exitX=0.5;exitY=0;exitDx=0;exitDy=0;endArrow=none;endFill=0;strokeWidth=2;strokeColor=#FF3333;" parent="1" source="NKGvH9Crkrx0q5OSbga0-54" edge="1">
          <mxGeometry relative="1" as="geometry">
            <mxPoint x="720" y="139.9999999999999" as="targetPoint" />
            <Array as="points">
              <mxPoint x="650" y="140" />
            </Array>
          </mxGeometry>
        </mxCell>
        <mxCell id="NKGvH9Crkrx0q5OSbga0-54" value="&lt;span style=&quot;font-size: 15px;&quot;&gt;Critico&lt;/span&gt;" style="rounded=1;arcSize=10;whiteSpace=wrap;html=1;align=center;strokeWidth=3;strokeColor=#FF3333;" parent="1" vertex="1">
          <mxGeometry x="600" y="180" width="100" height="40" as="geometry" />
        </mxCell>
        <mxCell id="NKGvH9Crkrx0q5OSbga0-58" value="" style="shape=flexArrow;endArrow=classic;html=1;rounded=0;entryX=0.5;entryY=1;entryDx=0;entryDy=0;fillColor=#FF3333;strokeColor=#FF3333;" parent="1" target="NKGvH9Crkrx0q5OSbga0-52" edge="1">
          <mxGeometry width="50" height="50" relative="1" as="geometry">
            <mxPoint x="720" y="140" as="sourcePoint" />
            <mxPoint x="790" y="220" as="targetPoint" />
          </mxGeometry>
        </mxCell>
        <mxCell id="NKGvH9Crkrx0q5OSbga0-113" style="edgeStyle=orthogonalEdgeStyle;rounded=1;orthogonalLoop=1;jettySize=auto;html=1;entryX=0.5;entryY=1;entryDx=0;entryDy=0;strokeWidth=2;endArrow=none;endFill=0;strokeColor=#FF3333;" parent="1" source="NKGvH9Crkrx0q5OSbga0-59" target="NKGvH9Crkrx0q5OSbga0-53" edge="1">
          <mxGeometry relative="1" as="geometry" />
        </mxCell>
        <mxCell id="NKGvH9Crkrx0q5OSbga0-59" value="&lt;font style=&quot;font-size: 15px;&quot;&gt;Recensione&lt;/font&gt;" style="shape=rhombus;perimeter=rhombusPerimeter;whiteSpace=wrap;html=1;align=center;strokeWidth=3;strokeColor=#FF3333;" parent="1" vertex="1">
          <mxGeometry x="730" y="250" width="120" height="60" as="geometry" />
        </mxCell>
        <mxCell id="NKGvH9Crkrx0q5OSbga0-60" value="&lt;font style=&quot;font-size: 15px;&quot;&gt;(0, N)&lt;/font&gt;" style="text;html=1;strokeColor=none;fillColor=none;align=center;verticalAlign=middle;whiteSpace=wrap;rounded=0;" parent="1" vertex="1">
          <mxGeometry x="800" y="300" width="60" height="30" as="geometry" />
        </mxCell>
        <mxCell id="NKGvH9Crkrx0q5OSbga0-110" style="edgeStyle=orthogonalEdgeStyle;rounded=1;orthogonalLoop=1;jettySize=auto;html=1;entryX=0.5;entryY=1;entryDx=0;entryDy=0;endArrow=none;endFill=0;strokeWidth=2;strokeColor=#FF3333;" parent="1" source="NKGvH9Crkrx0q5OSbga0-61" target="NKGvH9Crkrx0q5OSbga0-54" edge="1">
          <mxGeometry relative="1" as="geometry" />
        </mxCell>
        <mxCell id="NKGvH9Crkrx0q5OSbga0-61" value="&lt;font style=&quot;font-size: 15px;&quot;&gt;Critica&lt;/font&gt;" style="shape=rhombus;perimeter=rhombusPerimeter;whiteSpace=wrap;html=1;align=center;strokeWidth=3;strokeColor=#FF3333;" parent="1" vertex="1">
          <mxGeometry x="590" y="250" width="120" height="60" as="geometry" />
        </mxCell>
        <mxCell id="NKGvH9Crkrx0q5OSbga0-62" value="&lt;font style=&quot;font-size: 15px;&quot;&gt;(0, N)&lt;/font&gt;" style="text;html=1;strokeColor=none;fillColor=none;align=center;verticalAlign=middle;whiteSpace=wrap;rounded=0;" parent="1" vertex="1">
          <mxGeometry x="650" y="300" width="60" height="30" as="geometry" />
        </mxCell>
        <mxCell id="NKGvH9Crkrx0q5OSbga0-70" value="&lt;font style=&quot;font-size: 15px;&quot;&gt;(1, N)&lt;/font&gt;" style="text;html=1;strokeColor=none;fillColor=none;align=center;verticalAlign=middle;whiteSpace=wrap;rounded=0;" parent="1" vertex="1">
          <mxGeometry x="650" y="230" width="60" height="30" as="geometry" />
        </mxCell>
        <mxCell id="NKGvH9Crkrx0q5OSbga0-71" value="&lt;font style=&quot;font-size: 15px;&quot;&gt;(0, N)&lt;/font&gt;" style="text;html=1;strokeColor=none;fillColor=none;align=center;verticalAlign=middle;whiteSpace=wrap;rounded=0;" parent="1" vertex="1">
          <mxGeometry x="800" y="230" width="60" height="30" as="geometry" />
        </mxCell>
        <mxCell id="NKGvH9Crkrx0q5OSbga0-82" style="edgeStyle=orthogonalEdgeStyle;rounded=1;orthogonalLoop=1;jettySize=auto;html=1;entryX=0.5;entryY=1;entryDx=0;entryDy=0;endArrow=none;endFill=0;strokeWidth=2;strokeColor=#FF3333;" parent="1" source="NKGvH9Crkrx0q5OSbga0-77" target="NKGvH9Crkrx0q5OSbga0-80" edge="1">
          <mxGeometry relative="1" as="geometry" />
        </mxCell>
        <mxCell id="NKGvH9Crkrx0q5OSbga0-83" style="edgeStyle=orthogonalEdgeStyle;rounded=1;orthogonalLoop=1;jettySize=auto;html=1;entryX=0.5;entryY=0;entryDx=0;entryDy=0;strokeColor=#FF3333;strokeWidth=2;endArrow=none;endFill=0;" parent="1" source="NKGvH9Crkrx0q5OSbga0-77" target="NKGvH9Crkrx0q5OSbga0-79" edge="1">
          <mxGeometry relative="1" as="geometry" />
        </mxCell>
        <mxCell id="NKGvH9Crkrx0q5OSbga0-77" value="&lt;span style=&quot;font-size: 15px;&quot;&gt;Vincita&lt;/span&gt;" style="rounded=1;arcSize=10;whiteSpace=wrap;html=1;align=center;strokeWidth=3;strokeColor=#FF3333;" parent="1" vertex="1">
          <mxGeometry x="-10" y="180" width="100" height="40" as="geometry" />
        </mxCell>
        <mxCell id="FoAWJP59tls7MiWZvlNt-27" style="edgeStyle=orthogonalEdgeStyle;shape=connector;rounded=0;orthogonalLoop=1;jettySize=auto;html=1;labelBackgroundColor=default;strokeColor=#FF3333;strokeWidth=2;fontFamily=Helvetica;fontSize=11;fontColor=default;endArrow=none;endFill=0;" edge="1" parent="1" source="NKGvH9Crkrx0q5OSbga0-79">
          <mxGeometry relative="1" as="geometry">
            <mxPoint x="40" y="360" as="targetPoint" />
          </mxGeometry>
        </mxCell>
        <mxCell id="NKGvH9Crkrx0q5OSbga0-79" value="&lt;font style=&quot;font-size: 15px;&quot;&gt;PremioFilm&lt;/font&gt;" style="shape=rhombus;perimeter=rhombusPerimeter;whiteSpace=wrap;html=1;align=center;strokeWidth=3;strokeColor=#FF3333;" parent="1" vertex="1">
          <mxGeometry x="-20" y="250" width="120" height="60" as="geometry" />
        </mxCell>
        <mxCell id="NKGvH9Crkrx0q5OSbga0-85" style="edgeStyle=orthogonalEdgeStyle;rounded=1;orthogonalLoop=1;jettySize=auto;html=1;entryX=0;entryY=0.5;entryDx=0;entryDy=0;strokeColor=#FF3333;strokeWidth=2;endArrow=none;endFill=0;" parent="1" source="NKGvH9Crkrx0q5OSbga0-80" target="gfvizb78fDKN9hPaAQz3-11" edge="1">
          <mxGeometry relative="1" as="geometry" />
        </mxCell>
        <mxCell id="NKGvH9Crkrx0q5OSbga0-80" value="&lt;font style=&quot;font-size: 15px;&quot;&gt;VincitaPersona&lt;/font&gt;" style="shape=rhombus;perimeter=rhombusPerimeter;whiteSpace=wrap;html=1;align=center;strokeWidth=3;strokeColor=#FF3333;" parent="1" vertex="1">
          <mxGeometry x="-20" y="50" width="120" height="60" as="geometry" />
        </mxCell>
        <mxCell id="NKGvH9Crkrx0q5OSbga0-86" value="&lt;font style=&quot;font-size: 15px;&quot;&gt;(0, N)&lt;/font&gt;" style="text;html=1;strokeColor=none;fillColor=none;align=center;verticalAlign=middle;whiteSpace=wrap;rounded=0;" parent="1" vertex="1">
          <mxGeometry x="40" y="300" width="60" height="30" as="geometry" />
        </mxCell>
        <mxCell id="NKGvH9Crkrx0q5OSbga0-87" value="&lt;font style=&quot;font-size: 15px;&quot;&gt;(1, 1)&lt;/font&gt;" style="text;html=1;strokeColor=none;fillColor=none;align=center;verticalAlign=middle;whiteSpace=wrap;rounded=0;" parent="1" vertex="1">
          <mxGeometry x="40" y="230" width="60" height="30" as="geometry" />
        </mxCell>
        <mxCell id="NKGvH9Crkrx0q5OSbga0-88" value="&lt;font style=&quot;font-size: 15px;&quot;&gt;(0, 1)&lt;/font&gt;" style="text;html=1;strokeColor=none;fillColor=none;align=center;verticalAlign=middle;whiteSpace=wrap;rounded=0;" parent="1" vertex="1">
          <mxGeometry x="-20" y="100" width="60" height="30" as="geometry" />
        </mxCell>
        <mxCell id="NKGvH9Crkrx0q5OSbga0-89" value="&lt;font style=&quot;font-size: 15px;&quot;&gt;(0, N)&lt;/font&gt;" style="text;html=1;strokeColor=none;fillColor=none;align=center;verticalAlign=middle;whiteSpace=wrap;rounded=0;" parent="1" vertex="1">
          <mxGeometry x="80" y="50" width="60" height="30" as="geometry" />
        </mxCell>
        <mxCell id="NKGvH9Crkrx0q5OSbga0-133" value="&lt;font style=&quot;font-size: 15px;&quot;&gt;Container&lt;/font&gt;" style="rounded=1;arcSize=10;whiteSpace=wrap;html=1;align=center;strokeColor=#00FF00;strokeWidth=3;" parent="1" vertex="1">
          <mxGeometry x="500" y="800" width="100" height="40" as="geometry" />
        </mxCell>
        <mxCell id="NKGvH9Crkrx0q5OSbga0-134" value="&lt;font style=&quot;font-size: 15px;&quot;&gt;Codec&lt;/font&gt;" style="rounded=1;arcSize=10;whiteSpace=wrap;html=1;align=center;strokeWidth=3;strokeColor=#00FF00;" parent="1" vertex="1">
          <mxGeometry x="940" y="800" width="100" height="40" as="geometry" />
        </mxCell>
        <mxCell id="NKGvH9Crkrx0q5OSbga0-189" style="edgeStyle=orthogonalEdgeStyle;shape=connector;rounded=1;orthogonalLoop=1;jettySize=auto;html=1;labelBackgroundColor=default;strokeColor=#00FF00;strokeWidth=2;fontFamily=Helvetica;fontSize=11;fontColor=default;endArrow=none;endFill=0;" parent="1" source="NKGvH9Crkrx0q5OSbga0-136" edge="1">
          <mxGeometry relative="1" as="geometry">
            <mxPoint x="1000" y="725" as="targetPoint" />
            <Array as="points">
              <mxPoint x="1050" y="725" />
            </Array>
          </mxGeometry>
        </mxCell>
        <mxCell id="NKGvH9Crkrx0q5OSbga0-136" value="&lt;font style=&quot;font-size: 15px;&quot;&gt;Audio&lt;/font&gt;" style="rounded=1;arcSize=10;whiteSpace=wrap;html=1;align=center;strokeWidth=3;strokeColor=#00FF00;" parent="1" vertex="1">
          <mxGeometry x="1010" y="655" width="100" height="40" as="geometry" />
        </mxCell>
        <mxCell id="NKGvH9Crkrx0q5OSbga0-188" style="edgeStyle=orthogonalEdgeStyle;shape=connector;rounded=1;orthogonalLoop=1;jettySize=auto;html=1;labelBackgroundColor=default;strokeColor=#00FF00;strokeWidth=2;fontFamily=Helvetica;fontSize=11;fontColor=default;endArrow=none;endFill=0;" parent="1" source="NKGvH9Crkrx0q5OSbga0-138" edge="1">
          <mxGeometry relative="1" as="geometry">
            <mxPoint x="1000" y="725" as="targetPoint" />
            <Array as="points">
              <mxPoint x="920" y="725" />
            </Array>
          </mxGeometry>
        </mxCell>
        <mxCell id="NKGvH9Crkrx0q5OSbga0-138" value="&lt;span style=&quot;font-size: 15px;&quot;&gt;Video&lt;/span&gt;" style="rounded=1;arcSize=10;whiteSpace=wrap;html=1;align=center;strokeWidth=3;strokeColor=#00FF00;" parent="1" vertex="1">
          <mxGeometry x="870" y="655" width="100" height="40" as="geometry" />
        </mxCell>
        <mxCell id="NKGvH9Crkrx0q5OSbga0-139" value="" style="shape=flexArrow;endArrow=classic;html=1;rounded=0;entryX=0.5;entryY=0;entryDx=0;entryDy=0;fillColor=#00FF00;strokeColor=#00FF00;" parent="1" target="NKGvH9Crkrx0q5OSbga0-134" edge="1">
          <mxGeometry width="50" height="50" relative="1" as="geometry">
            <mxPoint x="990" y="725" as="sourcePoint" />
            <mxPoint x="395" y="1175" as="targetPoint" />
          </mxGeometry>
        </mxCell>
        <mxCell id="NKGvH9Crkrx0q5OSbga0-144" style="edgeStyle=orthogonalEdgeStyle;shape=connector;rounded=1;orthogonalLoop=1;jettySize=auto;html=1;labelBackgroundColor=default;strokeColor=#00FF00;strokeWidth=2;fontFamily=Helvetica;fontSize=11;fontColor=default;endArrow=none;endFill=0;" parent="1" source="NKGvH9Crkrx0q5OSbga0-140" target="NKGvH9Crkrx0q5OSbga0-133" edge="1">
          <mxGeometry relative="1" as="geometry" />
        </mxCell>
        <mxCell id="NKGvH9Crkrx0q5OSbga0-140" value="&lt;font style=&quot;font-size: 15px;&quot;&gt;FileContain&lt;/font&gt;" style="shape=rhombus;perimeter=rhombusPerimeter;whiteSpace=wrap;html=1;align=center;strokeWidth=3;strokeColor=#00FF00;" parent="1" vertex="1">
          <mxGeometry x="265" y="790" width="120" height="60" as="geometry" />
        </mxCell>
        <mxCell id="NKGvH9Crkrx0q5OSbga0-142" style="edgeStyle=orthogonalEdgeStyle;shape=connector;rounded=1;orthogonalLoop=1;jettySize=auto;html=1;labelBackgroundColor=default;strokeColor=#00FF00;strokeWidth=2;fontFamily=Helvetica;fontSize=11;fontColor=default;endArrow=none;endFill=0;entryX=0;entryY=0.5;entryDx=0;entryDy=0;" parent="1" source="NKGvH9Crkrx0q5OSbga0-141" target="NKGvH9Crkrx0q5OSbga0-134" edge="1">
          <mxGeometry relative="1" as="geometry">
            <mxPoint x="940" y="820" as="targetPoint" />
          </mxGeometry>
        </mxCell>
        <mxCell id="NKGvH9Crkrx0q5OSbga0-143" style="edgeStyle=orthogonalEdgeStyle;shape=connector;rounded=1;orthogonalLoop=1;jettySize=auto;html=1;labelBackgroundColor=default;strokeColor=#00FF00;strokeWidth=2;fontFamily=Helvetica;fontSize=11;fontColor=default;endArrow=none;endFill=0;" parent="1" source="NKGvH9Crkrx0q5OSbga0-141" target="NKGvH9Crkrx0q5OSbga0-133" edge="1">
          <mxGeometry relative="1" as="geometry" />
        </mxCell>
        <mxCell id="NKGvH9Crkrx0q5OSbga0-141" value="&lt;font style=&quot;font-size: 15px;&quot;&gt;CodContainer&lt;/font&gt;" style="shape=rhombus;perimeter=rhombusPerimeter;whiteSpace=wrap;html=1;align=center;strokeWidth=3;strokeColor=#00FF00;" parent="1" vertex="1">
          <mxGeometry x="710" y="790" width="120" height="60" as="geometry" />
        </mxCell>
        <mxCell id="NKGvH9Crkrx0q5OSbga0-146" value="&lt;font style=&quot;font-size: 15px;&quot;&gt;(1,N)&lt;/font&gt;" style="text;html=1;strokeColor=none;fillColor=none;align=center;verticalAlign=middle;whiteSpace=wrap;rounded=0;" parent="1" vertex="1">
          <mxGeometry x="810" y="790" width="60" height="30" as="geometry" />
        </mxCell>
        <mxCell id="NKGvH9Crkrx0q5OSbga0-147" value="&lt;font style=&quot;font-size: 15px;&quot;&gt;(1,N)&lt;/font&gt;" style="text;html=1;strokeColor=none;fillColor=none;align=center;verticalAlign=middle;whiteSpace=wrap;rounded=0;" parent="1" vertex="1">
          <mxGeometry x="670" y="790" width="60" height="30" as="geometry" />
        </mxCell>
        <mxCell id="NKGvH9Crkrx0q5OSbga0-148" value="&lt;font style=&quot;font-size: 15px;&quot;&gt;(1,N)&lt;/font&gt;" style="text;html=1;strokeColor=none;fillColor=none;align=center;verticalAlign=middle;whiteSpace=wrap;rounded=0;" parent="1" vertex="1">
          <mxGeometry x="362.5" y="820" width="60" height="30" as="geometry" />
        </mxCell>
        <mxCell id="NKGvH9Crkrx0q5OSbga0-149" value="&lt;font style=&quot;font-size: 15px;&quot;&gt;(1,N)&lt;/font&gt;" style="text;html=1;strokeColor=none;fillColor=none;align=center;verticalAlign=middle;whiteSpace=wrap;rounded=0;" parent="1" vertex="1">
          <mxGeometry x="320" y="765" width="60" height="30" as="geometry" />
        </mxCell>
        <mxCell id="NKGvH9Crkrx0q5OSbga0-151" style="edgeStyle=orthogonalEdgeStyle;shape=connector;rounded=1;orthogonalLoop=1;jettySize=auto;html=1;labelBackgroundColor=default;strokeColor=#00FF00;strokeWidth=2;fontFamily=Helvetica;fontSize=11;fontColor=default;endArrow=none;endFill=0;" parent="1" source="NKGvH9Crkrx0q5OSbga0-150" target="gfvizb78fDKN9hPaAQz3-34" edge="1">
          <mxGeometry relative="1" as="geometry" />
        </mxCell>
        <mxCell id="NKGvH9Crkrx0q5OSbga0-152" style="edgeStyle=orthogonalEdgeStyle;shape=connector;rounded=1;orthogonalLoop=1;jettySize=auto;html=1;labelBackgroundColor=default;strokeColor=#00FF00;strokeWidth=2;fontFamily=Helvetica;fontSize=11;fontColor=default;endArrow=none;endFill=0;" parent="1" source="NKGvH9Crkrx0q5OSbga0-150" target="NKGvH9Crkrx0q5OSbga0-9" edge="1">
          <mxGeometry relative="1" as="geometry" />
        </mxCell>
        <mxCell id="NKGvH9Crkrx0q5OSbga0-150" value="&lt;font style=&quot;font-size: 15px;&quot;&gt;Restrizione&lt;/font&gt;" style="shape=rhombus;perimeter=rhombusPerimeter;whiteSpace=wrap;html=1;align=center;strokeWidth=3;strokeColor=#00FF00;" parent="1" vertex="1">
          <mxGeometry x="405" y="645" width="120" height="60" as="geometry" />
        </mxCell>
        <mxCell id="NKGvH9Crkrx0q5OSbga0-153" value="&lt;font style=&quot;font-size: 15px;&quot;&gt;(0,N)&lt;/font&gt;" style="text;html=1;strokeColor=none;fillColor=none;align=center;verticalAlign=middle;whiteSpace=wrap;rounded=0;" parent="1" vertex="1">
          <mxGeometry x="500" y="645" width="60" height="30" as="geometry" />
        </mxCell>
        <mxCell id="NKGvH9Crkrx0q5OSbga0-154" value="&lt;font style=&quot;font-size: 15px;&quot;&gt;(0,N)&lt;/font&gt;" style="text;html=1;strokeColor=none;fillColor=none;align=center;verticalAlign=middle;whiteSpace=wrap;rounded=0;" parent="1" vertex="1">
          <mxGeometry x="375" y="645" width="60" height="30" as="geometry" />
        </mxCell>
        <mxCell id="NKGvH9Crkrx0q5OSbga0-158" style="edgeStyle=orthogonalEdgeStyle;shape=connector;rounded=1;orthogonalLoop=1;jettySize=auto;html=1;entryX=1;entryY=0.5;entryDx=0;entryDy=0;labelBackgroundColor=default;strokeColor=#33FFFF;strokeWidth=2;fontFamily=Helvetica;fontSize=11;fontColor=default;endArrow=none;endFill=0;" parent="1" source="NKGvH9Crkrx0q5OSbga0-155" target="NKGvH9Crkrx0q5OSbga0-156" edge="1">
          <mxGeometry relative="1" as="geometry" />
        </mxCell>
        <mxCell id="NKGvH9Crkrx0q5OSbga0-155" value="&lt;font style=&quot;font-size: 15px;&quot;&gt;Connessione&lt;/font&gt;" style="rounded=1;arcSize=10;whiteSpace=wrap;html=1;align=center;strokeWidth=3;strokeColor=#33FFFF;" parent="1" vertex="1">
          <mxGeometry x="1110" y="60" width="100" height="40" as="geometry" />
        </mxCell>
        <mxCell id="NKGvH9Crkrx0q5OSbga0-157" style="edgeStyle=orthogonalEdgeStyle;shape=connector;rounded=1;orthogonalLoop=1;jettySize=auto;html=1;entryX=1;entryY=0.25;entryDx=0;entryDy=0;labelBackgroundColor=default;strokeColor=#33FFFF;strokeWidth=2;fontFamily=Helvetica;fontSize=11;fontColor=default;endArrow=none;endFill=0;" parent="1" source="NKGvH9Crkrx0q5OSbga0-156" target="NKGvH9Crkrx0q5OSbga0-53" edge="1">
          <mxGeometry relative="1" as="geometry" />
        </mxCell>
        <mxCell id="NKGvH9Crkrx0q5OSbga0-156" value="&lt;font style=&quot;font-size: 15px;&quot;&gt;ConnUtente&lt;/font&gt;" style="shape=rhombus;perimeter=rhombusPerimeter;whiteSpace=wrap;html=1;align=center;strokeWidth=3;strokeColor=#33FFFF;" parent="1" vertex="1">
          <mxGeometry x="950" y="50" width="120" height="60" as="geometry" />
        </mxCell>
        <mxCell id="NKGvH9Crkrx0q5OSbga0-159" value="&lt;font style=&quot;font-size: 15px;&quot;&gt;(1,1)&lt;/font&gt;" style="text;html=1;strokeColor=none;fillColor=none;align=center;verticalAlign=middle;whiteSpace=wrap;rounded=0;" parent="1" vertex="1">
          <mxGeometry x="1040" y="50" width="60" height="30" as="geometry" />
        </mxCell>
        <mxCell id="NKGvH9Crkrx0q5OSbga0-160" value="&lt;font style=&quot;font-size: 15px;&quot;&gt;(0,N)&lt;/font&gt;" style="text;html=1;strokeColor=none;fillColor=none;align=center;verticalAlign=middle;whiteSpace=wrap;rounded=0;" parent="1" vertex="1">
          <mxGeometry x="910" y="50" width="60" height="30" as="geometry" />
        </mxCell>
        <mxCell id="NKGvH9Crkrx0q5OSbga0-164" style="edgeStyle=orthogonalEdgeStyle;shape=connector;rounded=1;orthogonalLoop=1;jettySize=auto;html=1;entryX=0.5;entryY=1;entryDx=0;entryDy=0;labelBackgroundColor=default;strokeColor=#33FFFF;strokeWidth=2;fontFamily=Helvetica;fontSize=11;fontColor=default;endArrow=none;endFill=0;" parent="1" source="NKGvH9Crkrx0q5OSbga0-161" target="NKGvH9Crkrx0q5OSbga0-163" edge="1">
          <mxGeometry relative="1" as="geometry" />
        </mxCell>
        <mxCell id="NKGvH9Crkrx0q5OSbga0-161" value="&lt;font style=&quot;font-size: 15px;&quot;&gt;Abbonamento&lt;/font&gt;" style="rounded=1;arcSize=10;whiteSpace=wrap;html=1;align=center;strokeWidth=3;strokeColor=#33FFFF;" parent="1" vertex="1">
          <mxGeometry x="980" y="540" width="100" height="40" as="geometry" />
        </mxCell>
        <mxCell id="NKGvH9Crkrx0q5OSbga0-166" style="edgeStyle=orthogonalEdgeStyle;shape=connector;rounded=1;orthogonalLoop=1;jettySize=auto;html=1;entryX=0;entryY=0.5;entryDx=0;entryDy=0;labelBackgroundColor=default;strokeColor=#33FFFF;strokeWidth=2;fontFamily=Helvetica;fontSize=11;fontColor=default;endArrow=none;endFill=0;" parent="1" source="NKGvH9Crkrx0q5OSbga0-162" target="NKGvH9Crkrx0q5OSbga0-161" edge="1">
          <mxGeometry relative="1" as="geometry" />
        </mxCell>
        <mxCell id="NKGvH9Crkrx0q5OSbga0-167" style="edgeStyle=orthogonalEdgeStyle;shape=connector;rounded=1;orthogonalLoop=1;jettySize=auto;html=1;entryX=1;entryY=0.5;entryDx=0;entryDy=0;labelBackgroundColor=default;strokeColor=#33FFFF;strokeWidth=2;fontFamily=Helvetica;fontSize=11;fontColor=default;endArrow=none;endFill=0;exitX=0.5;exitY=1;exitDx=0;exitDy=0;" parent="1" source="NKGvH9Crkrx0q5OSbga0-162" target="gfvizb78fDKN9hPaAQz3-34" edge="1">
          <mxGeometry relative="1" as="geometry" />
        </mxCell>
        <mxCell id="NKGvH9Crkrx0q5OSbga0-168" style="edgeStyle=orthogonalEdgeStyle;shape=connector;rounded=1;orthogonalLoop=1;jettySize=auto;html=1;entryX=0.75;entryY=0;entryDx=0;entryDy=0;labelBackgroundColor=default;strokeColor=#33FFFF;strokeWidth=2;fontFamily=Helvetica;fontSize=11;fontColor=default;endArrow=none;endFill=0;" parent="1" source="NKGvH9Crkrx0q5OSbga0-162" target="NKGvH9Crkrx0q5OSbga0-9" edge="1">
          <mxGeometry relative="1" as="geometry">
            <Array as="points">
              <mxPoint x="510" y="560" />
              <mxPoint x="510" y="635" />
              <mxPoint x="350" y="635" />
            </Array>
          </mxGeometry>
        </mxCell>
        <mxCell id="NKGvH9Crkrx0q5OSbga0-162" value="&lt;font style=&quot;font-size: 15px;&quot;&gt;Esclusione&lt;/font&gt;" style="shape=rhombus;perimeter=rhombusPerimeter;whiteSpace=wrap;html=1;align=center;strokeWidth=3;strokeColor=#33FFFF;" parent="1" vertex="1">
          <mxGeometry x="710" y="530" width="120" height="60" as="geometry" />
        </mxCell>
        <mxCell id="NKGvH9Crkrx0q5OSbga0-165" style="edgeStyle=orthogonalEdgeStyle;shape=connector;rounded=1;orthogonalLoop=1;jettySize=auto;html=1;entryX=1;entryY=0.75;entryDx=0;entryDy=0;labelBackgroundColor=default;strokeColor=#33FFFF;strokeWidth=2;fontFamily=Helvetica;fontSize=11;fontColor=default;endArrow=none;endFill=0;exitX=0.5;exitY=0;exitDx=0;exitDy=0;" parent="1" source="NKGvH9Crkrx0q5OSbga0-163" target="NKGvH9Crkrx0q5OSbga0-53" edge="1">
          <mxGeometry relative="1" as="geometry" />
        </mxCell>
        <mxCell id="NKGvH9Crkrx0q5OSbga0-163" value="&lt;font style=&quot;font-size: 15px;&quot;&gt;AbbonUtente&lt;/font&gt;" style="shape=rhombus;perimeter=rhombusPerimeter;whiteSpace=wrap;html=1;align=center;strokeWidth=3;strokeColor=#33FFFF;" parent="1" vertex="1">
          <mxGeometry x="970" y="380" width="120" height="60" as="geometry" />
        </mxCell>
        <mxCell id="NKGvH9Crkrx0q5OSbga0-170" value="&lt;font style=&quot;font-size: 15px;&quot;&gt;(0,N)&lt;/font&gt;" style="text;html=1;strokeColor=none;fillColor=none;align=center;verticalAlign=middle;whiteSpace=wrap;rounded=0;" parent="1" vertex="1">
          <mxGeometry x="670" y="530" width="60" height="30" as="geometry" />
        </mxCell>
        <mxCell id="NKGvH9Crkrx0q5OSbga0-171" value="&lt;font style=&quot;font-size: 15px;&quot;&gt;(0,N)&lt;/font&gt;" style="text;html=1;strokeColor=none;fillColor=none;align=center;verticalAlign=middle;whiteSpace=wrap;rounded=0;" parent="1" vertex="1">
          <mxGeometry x="760" y="580" width="60" height="30" as="geometry" />
        </mxCell>
        <mxCell id="NKGvH9Crkrx0q5OSbga0-172" value="&lt;font style=&quot;font-size: 15px;&quot;&gt;(0,N)&lt;/font&gt;" style="text;html=1;strokeColor=none;fillColor=none;align=center;verticalAlign=middle;whiteSpace=wrap;rounded=0;" parent="1" vertex="1">
          <mxGeometry x="810" y="530" width="60" height="30" as="geometry" />
        </mxCell>
        <mxCell id="NKGvH9Crkrx0q5OSbga0-173" value="&lt;font style=&quot;font-size: 15px;&quot;&gt;(0,N)&lt;/font&gt;" style="text;html=1;strokeColor=none;fillColor=none;align=center;verticalAlign=middle;whiteSpace=wrap;rounded=0;" parent="1" vertex="1">
          <mxGeometry x="1022.5" y="430" width="60" height="30" as="geometry" />
        </mxCell>
        <mxCell id="NKGvH9Crkrx0q5OSbga0-174" value="&lt;font style=&quot;font-size: 15px;&quot;&gt;(1,1)&lt;/font&gt;" style="text;html=1;strokeColor=none;fillColor=none;align=center;verticalAlign=middle;whiteSpace=wrap;rounded=0;" parent="1" vertex="1">
          <mxGeometry x="1020" y="350" width="60" height="30" as="geometry" />
        </mxCell>
        <mxCell id="NKGvH9Crkrx0q5OSbga0-176" value="&lt;font style=&quot;font-size: 15px;&quot;&gt;Pagamento&lt;/font&gt;" style="rounded=1;arcSize=10;whiteSpace=wrap;html=1;align=center;strokeWidth=3;strokeColor=#33FFFF;" parent="1" vertex="1">
          <mxGeometry x="1110" y="370" width="100" height="40" as="geometry" />
        </mxCell>
        <mxCell id="NKGvH9Crkrx0q5OSbga0-181" style="edgeStyle=orthogonalEdgeStyle;shape=connector;rounded=1;orthogonalLoop=1;jettySize=auto;html=1;entryX=1;entryY=0.5;entryDx=0;entryDy=0;labelBackgroundColor=default;strokeColor=#33FFFF;strokeWidth=2;fontFamily=Helvetica;fontSize=11;fontColor=default;endArrow=none;endFill=0;" parent="1" source="NKGvH9Crkrx0q5OSbga0-177" target="NKGvH9Crkrx0q5OSbga0-179" edge="1">
          <mxGeometry relative="1" as="geometry" />
        </mxCell>
        <mxCell id="NKGvH9Crkrx0q5OSbga0-182" style="edgeStyle=orthogonalEdgeStyle;shape=connector;rounded=1;orthogonalLoop=1;jettySize=auto;html=1;entryX=0.5;entryY=0;entryDx=0;entryDy=0;labelBackgroundColor=default;strokeColor=#33FFFF;strokeWidth=2;fontFamily=Helvetica;fontSize=11;fontColor=default;endArrow=none;endFill=0;" parent="1" source="NKGvH9Crkrx0q5OSbga0-177" target="NKGvH9Crkrx0q5OSbga0-178" edge="1">
          <mxGeometry relative="1" as="geometry" />
        </mxCell>
        <mxCell id="NKGvH9Crkrx0q5OSbga0-177" value="&lt;font style=&quot;font-size: 15px;&quot;&gt;Fattura&lt;/font&gt;" style="rounded=1;arcSize=10;whiteSpace=wrap;html=1;align=center;strokeWidth=3;strokeColor=#33FFFF;" parent="1" vertex="1">
          <mxGeometry x="1110" y="150" width="100" height="40" as="geometry" />
        </mxCell>
        <mxCell id="NKGvH9Crkrx0q5OSbga0-183" style="edgeStyle=orthogonalEdgeStyle;shape=connector;rounded=1;orthogonalLoop=1;jettySize=auto;html=1;entryX=0.5;entryY=0;entryDx=0;entryDy=0;labelBackgroundColor=default;strokeColor=#33FFFF;strokeWidth=2;fontFamily=Helvetica;fontSize=11;fontColor=default;endArrow=none;endFill=0;" parent="1" source="NKGvH9Crkrx0q5OSbga0-178" target="NKGvH9Crkrx0q5OSbga0-176" edge="1">
          <mxGeometry relative="1" as="geometry" />
        </mxCell>
        <mxCell id="NKGvH9Crkrx0q5OSbga0-178" value="&lt;font style=&quot;font-size: 15px;&quot;&gt;Pagamento&lt;br&gt;Fattura&lt;/font&gt;" style="shape=rhombus;perimeter=rhombusPerimeter;whiteSpace=wrap;html=1;align=center;strokeWidth=3;strokeColor=#33FFFF;" parent="1" vertex="1">
          <mxGeometry x="1100" y="250" width="120" height="60" as="geometry" />
        </mxCell>
        <mxCell id="NKGvH9Crkrx0q5OSbga0-180" style="edgeStyle=orthogonalEdgeStyle;shape=connector;rounded=1;orthogonalLoop=1;jettySize=auto;html=1;entryX=1;entryY=0.5;entryDx=0;entryDy=0;labelBackgroundColor=default;strokeColor=#33FFFF;strokeWidth=2;fontFamily=Helvetica;fontSize=11;fontColor=default;endArrow=none;endFill=0;" parent="1" source="NKGvH9Crkrx0q5OSbga0-179" target="NKGvH9Crkrx0q5OSbga0-53" edge="1">
          <mxGeometry relative="1" as="geometry">
            <Array as="points">
              <mxPoint x="910" y="170" />
              <mxPoint x="910" y="200" />
            </Array>
          </mxGeometry>
        </mxCell>
        <mxCell id="NKGvH9Crkrx0q5OSbga0-179" value="&lt;font style=&quot;font-size: 15px;&quot;&gt;Emissione&lt;/font&gt;" style="shape=rhombus;perimeter=rhombusPerimeter;whiteSpace=wrap;html=1;align=center;strokeWidth=3;strokeColor=#33FFFF;" parent="1" vertex="1">
          <mxGeometry x="950" y="140" width="120" height="60" as="geometry" />
        </mxCell>
        <mxCell id="NKGvH9Crkrx0q5OSbga0-184" value="&lt;font style=&quot;font-size: 15px;&quot;&gt;(1,1)&lt;/font&gt;" style="text;html=1;strokeColor=none;fillColor=none;align=center;verticalAlign=middle;whiteSpace=wrap;rounded=0;" parent="1" vertex="1">
          <mxGeometry x="1160" y="300" width="60" height="30" as="geometry" />
        </mxCell>
        <mxCell id="NKGvH9Crkrx0q5OSbga0-185" value="&lt;font style=&quot;font-size: 15px;&quot;&gt;(0,1)&lt;/font&gt;" style="text;html=1;strokeColor=none;fillColor=none;align=center;verticalAlign=middle;whiteSpace=wrap;rounded=0;" parent="1" vertex="1">
          <mxGeometry x="1160" y="225" width="60" height="30" as="geometry" />
        </mxCell>
        <mxCell id="NKGvH9Crkrx0q5OSbga0-186" value="&lt;font style=&quot;font-size: 15px;&quot;&gt;(1,1)&lt;/font&gt;" style="text;html=1;strokeColor=none;fillColor=none;align=center;verticalAlign=middle;whiteSpace=wrap;rounded=0;" parent="1" vertex="1">
          <mxGeometry x="1040" y="140" width="60" height="30" as="geometry" />
        </mxCell>
        <mxCell id="NKGvH9Crkrx0q5OSbga0-187" value="&lt;font style=&quot;font-size: 15px;&quot;&gt;(0,N)&lt;/font&gt;" style="text;html=1;strokeColor=none;fillColor=none;align=center;verticalAlign=middle;whiteSpace=wrap;rounded=0;" parent="1" vertex="1">
          <mxGeometry x="920" y="140" width="60" height="30" as="geometry" />
        </mxCell>
        <mxCell id="NKGvH9Crkrx0q5OSbga0-192" style="edgeStyle=orthogonalEdgeStyle;shape=connector;rounded=1;orthogonalLoop=1;jettySize=auto;html=1;entryX=0;entryY=0.5;entryDx=0;entryDy=0;labelBackgroundColor=default;strokeColor=#FFFF00;strokeWidth=2;fontFamily=Helvetica;fontSize=11;fontColor=default;endArrow=none;endFill=0;" parent="1" source="NKGvH9Crkrx0q5OSbga0-190" target="NKGvH9Crkrx0q5OSbga0-191" edge="1">
          <mxGeometry relative="1" as="geometry" />
        </mxCell>
        <mxCell id="NKGvH9Crkrx0q5OSbga0-190" value="&lt;font style=&quot;font-size: 15px;&quot;&gt;Server&lt;/font&gt;" style="rounded=1;arcSize=10;whiteSpace=wrap;html=1;align=center;strokeWidth=3;strokeColor=#FFFF00;" parent="1" vertex="1">
          <mxGeometry x="-120" y="800" width="100" height="40" as="geometry" />
        </mxCell>
        <mxCell id="NKGvH9Crkrx0q5OSbga0-193" style="edgeStyle=orthogonalEdgeStyle;shape=connector;rounded=1;orthogonalLoop=1;jettySize=auto;html=1;entryX=0.25;entryY=1;entryDx=0;entryDy=0;labelBackgroundColor=default;strokeColor=#FFFF00;strokeWidth=2;fontFamily=Helvetica;fontSize=11;fontColor=default;endArrow=none;endFill=0;exitX=1;exitY=0.5;exitDx=0;exitDy=0;" parent="1" source="NKGvH9Crkrx0q5OSbga0-191" target="NKGvH9Crkrx0q5OSbga0-9" edge="1">
          <mxGeometry relative="1" as="geometry">
            <Array as="points">
              <mxPoint x="180" y="820" />
              <mxPoint x="180" y="795" />
              <mxPoint x="220" y="795" />
              <mxPoint x="220" y="755" />
              <mxPoint x="260" y="755" />
              <mxPoint x="260" y="715" />
              <mxPoint x="300" y="715" />
            </Array>
          </mxGeometry>
        </mxCell>
        <mxCell id="NKGvH9Crkrx0q5OSbga0-191" value="&lt;font style=&quot;font-size: 15px;&quot;&gt;P.o.P&lt;/font&gt;" style="shape=rhombus;perimeter=rhombusPerimeter;whiteSpace=wrap;html=1;align=center;strokeWidth=3;strokeColor=#FFFF00;" parent="1" vertex="1">
          <mxGeometry x="50" y="790" width="120" height="60" as="geometry" />
        </mxCell>
        <mxCell id="NKGvH9Crkrx0q5OSbga0-194" value="&lt;font style=&quot;font-size: 15px;&quot;&gt;IP Range&lt;/font&gt;" style="rounded=1;arcSize=10;whiteSpace=wrap;html=1;align=center;strokeWidth=3;strokeColor=#FFFF00;" parent="1" vertex="1">
          <mxGeometry x="720" y="725" width="100" height="40" as="geometry" />
        </mxCell>
        <mxCell id="NKGvH9Crkrx0q5OSbga0-196" style="edgeStyle=orthogonalEdgeStyle;shape=connector;rounded=1;orthogonalLoop=1;jettySize=auto;html=1;entryX=0;entryY=0.5;entryDx=0;entryDy=0;labelBackgroundColor=default;strokeColor=#FFFF00;strokeWidth=2;fontFamily=Helvetica;fontSize=11;fontColor=default;endArrow=none;endFill=0;" parent="1" source="NKGvH9Crkrx0q5OSbga0-195" target="NKGvH9Crkrx0q5OSbga0-194" edge="1">
          <mxGeometry relative="1" as="geometry" />
        </mxCell>
        <mxCell id="NKGvH9Crkrx0q5OSbga0-198" style="edgeStyle=orthogonalEdgeStyle;shape=connector;rounded=1;orthogonalLoop=1;jettySize=auto;html=1;labelBackgroundColor=default;strokeColor=#FFFF00;strokeWidth=2;fontFamily=Helvetica;fontSize=11;fontColor=default;endArrow=none;endFill=0;" parent="1" source="NKGvH9Crkrx0q5OSbga0-195" target="gfvizb78fDKN9hPaAQz3-34" edge="1">
          <mxGeometry relative="1" as="geometry" />
        </mxCell>
        <mxCell id="NKGvH9Crkrx0q5OSbga0-195" value="&lt;font style=&quot;font-size: 15px;&quot;&gt;Geolacal&lt;/font&gt;" style="shape=rhombus;perimeter=rhombusPerimeter;whiteSpace=wrap;html=1;align=center;strokeWidth=3;strokeColor=#FFFF00;" parent="1" vertex="1">
          <mxGeometry x="540" y="715" width="120" height="60" as="geometry" />
        </mxCell>
        <mxCell id="NKGvH9Crkrx0q5OSbga0-199" value="&lt;font style=&quot;font-size: 15px;&quot;&gt;(1, N)&lt;/font&gt;" style="text;html=1;strokeColor=none;fillColor=none;align=center;verticalAlign=middle;whiteSpace=wrap;rounded=0;" parent="1" vertex="1">
          <mxGeometry x="145" y="825" width="60" height="30" as="geometry" />
        </mxCell>
        <mxCell id="NKGvH9Crkrx0q5OSbga0-200" value="&lt;font style=&quot;font-size: 15px;&quot;&gt;(1, N)&lt;/font&gt;" style="text;html=1;strokeColor=none;fillColor=none;align=center;verticalAlign=middle;whiteSpace=wrap;rounded=0;" parent="1" vertex="1">
          <mxGeometry x="600" y="695" width="60" height="30" as="geometry" />
        </mxCell>
        <mxCell id="NKGvH9Crkrx0q5OSbga0-201" value="&lt;font style=&quot;font-size: 15px;&quot;&gt;(1, N)&lt;/font&gt;" style="text;html=1;strokeColor=none;fillColor=none;align=center;verticalAlign=middle;whiteSpace=wrap;rounded=0;" parent="1" vertex="1">
          <mxGeometry x="640" y="750" width="60" height="30" as="geometry" />
        </mxCell>
        <mxCell id="FoAWJP59tls7MiWZvlNt-5" style="edgeStyle=orthogonalEdgeStyle;rounded=0;orthogonalLoop=1;jettySize=auto;html=1;entryX=0.5;entryY=1;entryDx=0;entryDy=0;strokeColor=#FF3333;endArrow=none;endFill=0;strokeWidth=2;" edge="1" parent="1" source="FoAWJP59tls7MiWZvlNt-1" target="gfvizb78fDKN9hPaAQz3-2">
          <mxGeometry relative="1" as="geometry" />
        </mxCell>
        <mxCell id="FoAWJP59tls7MiWZvlNt-1" value="" style="ellipse;whiteSpace=wrap;html=1;aspect=fixed;fillColor=#000000;" vertex="1" parent="1">
          <mxGeometry x="480" y="430" width="10" height="10" as="geometry" />
        </mxCell>
        <mxCell id="FoAWJP59tls7MiWZvlNt-6" style="edgeStyle=orthogonalEdgeStyle;rounded=0;orthogonalLoop=1;jettySize=auto;html=1;strokeColor=#FF3333;endArrow=none;endFill=0;strokeWidth=2;entryX=0.591;entryY=0.993;entryDx=0;entryDy=0;entryPerimeter=0;" edge="1" parent="1" source="FoAWJP59tls7MiWZvlNt-2" target="gfvizb78fDKN9hPaAQz3-2">
          <mxGeometry relative="1" as="geometry">
            <mxPoint x="496" y="379" as="targetPoint" />
            <Array as="points">
              <mxPoint x="495" y="410" />
              <mxPoint x="494" y="410" />
            </Array>
          </mxGeometry>
        </mxCell>
        <mxCell id="FoAWJP59tls7MiWZvlNt-2" value="" style="ellipse;whiteSpace=wrap;html=1;aspect=fixed;" vertex="1" parent="1">
          <mxGeometry x="490" y="420" width="10" height="10" as="geometry" />
        </mxCell>
        <mxCell id="FoAWJP59tls7MiWZvlNt-7" style="edgeStyle=orthogonalEdgeStyle;rounded=0;orthogonalLoop=1;jettySize=auto;html=1;entryX=0.701;entryY=1;entryDx=0;entryDy=0;entryPerimeter=0;strokeColor=#FF3333;strokeWidth=2;endArrow=none;endFill=0;" edge="1" parent="1" source="FoAWJP59tls7MiWZvlNt-3" target="gfvizb78fDKN9hPaAQz3-2">
          <mxGeometry relative="1" as="geometry" />
        </mxCell>
        <mxCell id="FoAWJP59tls7MiWZvlNt-3" value="" style="ellipse;whiteSpace=wrap;html=1;aspect=fixed;" vertex="1" parent="1">
          <mxGeometry x="500" y="410" width="10" height="10" as="geometry" />
        </mxCell>
        <mxCell id="FoAWJP59tls7MiWZvlNt-8" style="edgeStyle=orthogonalEdgeStyle;rounded=0;orthogonalLoop=1;jettySize=auto;html=1;entryX=0.796;entryY=0.994;entryDx=0;entryDy=0;entryPerimeter=0;strokeColor=#FF3333;strokeWidth=2;endArrow=none;endFill=0;" edge="1" parent="1" source="FoAWJP59tls7MiWZvlNt-4" target="gfvizb78fDKN9hPaAQz3-2">
          <mxGeometry relative="1" as="geometry" />
        </mxCell>
        <mxCell id="FoAWJP59tls7MiWZvlNt-4" value="" style="ellipse;whiteSpace=wrap;html=1;aspect=fixed;" vertex="1" parent="1">
          <mxGeometry x="510" y="400" width="10" height="10" as="geometry" />
        </mxCell>
        <mxCell id="FoAWJP59tls7MiWZvlNt-9" value="&lt;font style=&quot;font-size: 9px;&quot;&gt;ID&lt;br&gt;&lt;/font&gt;" style="text;html=1;strokeColor=none;fillColor=none;align=center;verticalAlign=middle;whiteSpace=wrap;rounded=0;" vertex="1" parent="1">
          <mxGeometry x="490" y="430" width="20" height="10" as="geometry" />
        </mxCell>
        <mxCell id="FoAWJP59tls7MiWZvlNt-10" value="&lt;font style=&quot;font-size: 9px;&quot;&gt;Titolo&lt;br&gt;&lt;/font&gt;" style="text;html=1;strokeColor=none;fillColor=none;align=center;verticalAlign=middle;whiteSpace=wrap;rounded=0;" vertex="1" parent="1">
          <mxGeometry x="500" y="420" width="30" height="10" as="geometry" />
        </mxCell>
        <mxCell id="FoAWJP59tls7MiWZvlNt-11" value="&lt;font style=&quot;font-size: 9px;&quot;&gt;Durata&lt;br&gt;&lt;/font&gt;" style="text;html=1;strokeColor=none;fillColor=none;align=center;verticalAlign=middle;whiteSpace=wrap;rounded=0;" vertex="1" parent="1">
          <mxGeometry x="510" y="410" width="30" height="10" as="geometry" />
        </mxCell>
        <mxCell id="FoAWJP59tls7MiWZvlNt-12" value="&lt;font style=&quot;font-size: 9px;&quot;&gt;Descrizione&lt;br&gt;&lt;/font&gt;" style="text;html=1;strokeColor=none;fillColor=none;align=center;verticalAlign=middle;whiteSpace=wrap;rounded=0;" vertex="1" parent="1">
          <mxGeometry x="520" y="400" width="50" height="10" as="geometry" />
        </mxCell>
        <mxCell id="FoAWJP59tls7MiWZvlNt-17" style="edgeStyle=orthogonalEdgeStyle;rounded=0;orthogonalLoop=1;jettySize=auto;html=1;entryX=0.5;entryY=0;entryDx=0;entryDy=0;strokeColor=#FF3333;strokeWidth=2;endArrow=none;endFill=0;" edge="1" parent="1" source="FoAWJP59tls7MiWZvlNt-13" target="NKGvH9Crkrx0q5OSbga0-1">
          <mxGeometry relative="1" as="geometry" />
        </mxCell>
        <mxCell id="FoAWJP59tls7MiWZvlNt-13" value="" style="ellipse;whiteSpace=wrap;html=1;aspect=fixed;fillColor=#000000;" vertex="1" parent="1">
          <mxGeometry x="480" y="130" width="10" height="10" as="geometry" />
        </mxCell>
        <mxCell id="FoAWJP59tls7MiWZvlNt-15" value="&lt;font style=&quot;font-size: 9px;&quot;&gt;Nome&lt;br&gt;&lt;/font&gt;" style="text;html=1;strokeColor=none;fillColor=none;align=center;verticalAlign=middle;whiteSpace=wrap;rounded=0;" vertex="1" parent="1">
          <mxGeometry x="495" y="130" width="20" height="10" as="geometry" />
        </mxCell>
        <mxCell id="FoAWJP59tls7MiWZvlNt-24" style="edgeStyle=orthogonalEdgeStyle;shape=connector;rounded=0;orthogonalLoop=1;jettySize=auto;html=1;labelBackgroundColor=default;strokeColor=#FF3333;strokeWidth=2;fontFamily=Helvetica;fontSize=11;fontColor=default;endArrow=none;endFill=0;" edge="1" parent="1" source="FoAWJP59tls7MiWZvlNt-18">
          <mxGeometry relative="1" as="geometry">
            <mxPoint x="265" y="60" as="targetPoint" />
          </mxGeometry>
        </mxCell>
        <mxCell id="FoAWJP59tls7MiWZvlNt-18" value="" style="ellipse;whiteSpace=wrap;html=1;aspect=fixed;fillColor=#000000;" vertex="1" parent="1">
          <mxGeometry x="260" y="10" width="10" height="10" as="geometry" />
        </mxCell>
        <mxCell id="FoAWJP59tls7MiWZvlNt-19" value="&lt;font style=&quot;font-size: 9px;&quot;&gt;Nome&lt;br&gt;&lt;/font&gt;" style="text;html=1;strokeColor=none;fillColor=none;align=center;verticalAlign=middle;whiteSpace=wrap;rounded=0;" vertex="1" parent="1">
          <mxGeometry x="275" y="10" width="20" height="10" as="geometry" />
        </mxCell>
        <mxCell id="FoAWJP59tls7MiWZvlNt-25" style="edgeStyle=orthogonalEdgeStyle;shape=connector;rounded=0;orthogonalLoop=1;jettySize=auto;html=1;entryX=0.5;entryY=0;entryDx=0;entryDy=0;labelBackgroundColor=default;strokeColor=#FF3333;strokeWidth=2;fontFamily=Helvetica;fontSize=11;fontColor=default;endArrow=none;endFill=0;" edge="1" parent="1" source="FoAWJP59tls7MiWZvlNt-20" target="gfvizb78fDKN9hPaAQz3-11">
          <mxGeometry relative="1" as="geometry" />
        </mxCell>
        <mxCell id="FoAWJP59tls7MiWZvlNt-20" value="" style="ellipse;whiteSpace=wrap;html=1;aspect=fixed;fillColor=#000000;" vertex="1" parent="1">
          <mxGeometry x="270" y="20" width="10" height="10" as="geometry" />
        </mxCell>
        <mxCell id="FoAWJP59tls7MiWZvlNt-21" value="&lt;font style=&quot;font-size: 9px;&quot;&gt;Cognome&lt;br&gt;&lt;/font&gt;" style="text;html=1;strokeColor=none;fillColor=none;align=center;verticalAlign=middle;whiteSpace=wrap;rounded=0;" vertex="1" parent="1">
          <mxGeometry x="285" y="20" width="35" height="10" as="geometry" />
        </mxCell>
        <mxCell id="FoAWJP59tls7MiWZvlNt-26" style="edgeStyle=orthogonalEdgeStyle;shape=connector;rounded=0;orthogonalLoop=1;jettySize=auto;html=1;entryX=0.601;entryY=0.018;entryDx=0;entryDy=0;entryPerimeter=0;labelBackgroundColor=default;strokeColor=#FF3333;strokeWidth=2;fontFamily=Helvetica;fontSize=11;fontColor=default;endArrow=none;endFill=0;" edge="1" parent="1" source="FoAWJP59tls7MiWZvlNt-22" target="gfvizb78fDKN9hPaAQz3-11">
          <mxGeometry relative="1" as="geometry" />
        </mxCell>
        <mxCell id="FoAWJP59tls7MiWZvlNt-22" value="" style="ellipse;whiteSpace=wrap;html=1;aspect=fixed;fillColor=#FFFFFF;" vertex="1" parent="1">
          <mxGeometry x="280" y="30" width="10" height="10" as="geometry" />
        </mxCell>
        <mxCell id="FoAWJP59tls7MiWZvlNt-23" value="&lt;font style=&quot;font-size: 9px;&quot;&gt;Popolarità&lt;br&gt;&lt;/font&gt;" style="text;html=1;strokeColor=none;fillColor=none;align=center;verticalAlign=middle;whiteSpace=wrap;rounded=0;" vertex="1" parent="1">
          <mxGeometry x="290" y="30" width="45" height="10" as="geometry" />
        </mxCell>
        <mxCell id="FoAWJP59tls7MiWZvlNt-29" value="&lt;span style=&quot;font-size: 15px;&quot;&gt;Premio&lt;/span&gt;" style="rounded=1;arcSize=10;whiteSpace=wrap;html=1;align=center;strokeWidth=3;strokeColor=#FF3333;" vertex="1" parent="1">
          <mxGeometry x="-170" y="260" width="100" height="40" as="geometry" />
        </mxCell>
        <mxCell id="FoAWJP59tls7MiWZvlNt-31" style="edgeStyle=orthogonalEdgeStyle;shape=connector;rounded=0;orthogonalLoop=1;jettySize=auto;html=1;entryX=0;entryY=0.5;entryDx=0;entryDy=0;labelBackgroundColor=default;strokeColor=#FF3333;strokeWidth=2;fontFamily=Helvetica;fontSize=11;fontColor=default;endArrow=none;endFill=0;" edge="1" parent="1" source="FoAWJP59tls7MiWZvlNt-30" target="NKGvH9Crkrx0q5OSbga0-77">
          <mxGeometry relative="1" as="geometry" />
        </mxCell>
        <mxCell id="FoAWJP59tls7MiWZvlNt-32" style="edgeStyle=orthogonalEdgeStyle;shape=connector;rounded=0;orthogonalLoop=1;jettySize=auto;html=1;entryX=0.5;entryY=0;entryDx=0;entryDy=0;labelBackgroundColor=default;strokeColor=#FF3333;strokeWidth=2;fontFamily=Helvetica;fontSize=11;fontColor=default;endArrow=none;endFill=0;" edge="1" parent="1" source="FoAWJP59tls7MiWZvlNt-30" target="FoAWJP59tls7MiWZvlNt-29">
          <mxGeometry relative="1" as="geometry" />
        </mxCell>
        <mxCell id="FoAWJP59tls7MiWZvlNt-30" value="&lt;font style=&quot;font-size: 15px;&quot;&gt;VincitaPremio&lt;/font&gt;" style="shape=rhombus;perimeter=rhombusPerimeter;whiteSpace=wrap;html=1;align=center;strokeWidth=3;strokeColor=#FF3333;" vertex="1" parent="1">
          <mxGeometry x="-180" y="170" width="120" height="60" as="geometry" />
        </mxCell>
        <mxCell id="FoAWJP59tls7MiWZvlNt-33" value="&lt;font style=&quot;font-size: 15px;&quot;&gt;(1, N)&lt;/font&gt;" style="text;html=1;strokeColor=none;fillColor=none;align=center;verticalAlign=middle;whiteSpace=wrap;rounded=0;" vertex="1" parent="1">
          <mxGeometry x="-120" y="220" width="60" height="30" as="geometry" />
        </mxCell>
        <mxCell id="FoAWJP59tls7MiWZvlNt-34" value="&lt;font style=&quot;font-size: 15px;&quot;&gt;(1, 1)&lt;/font&gt;" style="text;html=1;strokeColor=none;fillColor=none;align=center;verticalAlign=middle;whiteSpace=wrap;rounded=0;" vertex="1" parent="1">
          <mxGeometry x="-80" y="170" width="60" height="30" as="geometry" />
        </mxCell>
        <mxCell id="FoAWJP59tls7MiWZvlNt-36" value="" style="ellipse;whiteSpace=wrap;html=1;aspect=fixed;fillColor=#000000;" vertex="1" parent="1">
          <mxGeometry x="-40" y="150" width="10" height="10" as="geometry" />
        </mxCell>
        <mxCell id="FoAWJP59tls7MiWZvlNt-37" value="&lt;font style=&quot;font-size: 9px;&quot;&gt;Data&lt;br&gt;&lt;/font&gt;" style="text;html=1;strokeColor=none;fillColor=none;align=center;verticalAlign=middle;whiteSpace=wrap;rounded=0;" vertex="1" parent="1">
          <mxGeometry x="-30" y="150" width="30" height="10" as="geometry" />
        </mxCell>
        <mxCell id="FoAWJP59tls7MiWZvlNt-43" style="edgeStyle=orthogonalEdgeStyle;shape=connector;rounded=0;orthogonalLoop=1;jettySize=auto;html=1;labelBackgroundColor=default;strokeColor=#FF3333;strokeWidth=2;fontFamily=Helvetica;fontSize=11;fontColor=default;endArrow=none;endFill=0;" edge="1" parent="1" source="FoAWJP59tls7MiWZvlNt-39">
          <mxGeometry relative="1" as="geometry">
            <mxPoint x="-15" y="160" as="targetPoint" />
          </mxGeometry>
        </mxCell>
        <mxCell id="FoAWJP59tls7MiWZvlNt-39" value="" style="ellipse;whiteSpace=wrap;html=1;aspect=fixed;fillColor=#000000;" vertex="1" parent="1">
          <mxGeometry x="-20" y="220" width="10" height="10" as="geometry" />
        </mxCell>
        <mxCell id="FoAWJP59tls7MiWZvlNt-48" value="" style="endArrow=none;html=1;rounded=0;labelBackgroundColor=default;strokeColor=#FF3333;strokeWidth=2;fontFamily=Helvetica;fontSize=11;fontColor=default;shape=connector;entryX=0;entryY=0;entryDx=0;entryDy=0;exitX=1;exitY=1;exitDx=0;exitDy=0;" edge="1" parent="1" source="FoAWJP59tls7MiWZvlNt-36" target="NKGvH9Crkrx0q5OSbga0-77">
          <mxGeometry width="50" height="50" relative="1" as="geometry">
            <mxPoint x="-30" y="160" as="sourcePoint" />
            <mxPoint x="100" y="80" as="targetPoint" />
          </mxGeometry>
        </mxCell>
        <mxCell id="FoAWJP59tls7MiWZvlNt-53" style="edgeStyle=orthogonalEdgeStyle;shape=connector;rounded=0;orthogonalLoop=1;jettySize=auto;html=1;entryX=0.456;entryY=1.01;entryDx=0;entryDy=0;entryPerimeter=0;labelBackgroundColor=default;strokeColor=#FF3333;strokeWidth=2;fontFamily=Helvetica;fontSize=11;fontColor=default;endArrow=none;endFill=0;" edge="1" parent="1" source="FoAWJP59tls7MiWZvlNt-49" target="FoAWJP59tls7MiWZvlNt-29">
          <mxGeometry relative="1" as="geometry" />
        </mxCell>
        <mxCell id="FoAWJP59tls7MiWZvlNt-49" value="" style="ellipse;whiteSpace=wrap;html=1;aspect=fixed;fillColor=#000000;" vertex="1" parent="1">
          <mxGeometry x="-130" y="340" width="10" height="10" as="geometry" />
        </mxCell>
        <mxCell id="FoAWJP59tls7MiWZvlNt-50" value="&lt;font style=&quot;font-size: 9px;&quot;&gt;Macrotipo&lt;br&gt;&lt;/font&gt;" style="text;html=1;strokeColor=none;fillColor=none;align=center;verticalAlign=middle;whiteSpace=wrap;rounded=0;" vertex="1" parent="1">
          <mxGeometry x="-115" y="340" width="35" height="10" as="geometry" />
        </mxCell>
        <mxCell id="FoAWJP59tls7MiWZvlNt-54" style="edgeStyle=orthogonalEdgeStyle;shape=connector;rounded=0;orthogonalLoop=1;jettySize=auto;html=1;entryX=0.552;entryY=1.03;entryDx=0;entryDy=0;entryPerimeter=0;labelBackgroundColor=default;strokeColor=#FF3333;strokeWidth=2;fontFamily=Helvetica;fontSize=11;fontColor=default;endArrow=none;endFill=0;" edge="1" parent="1" source="FoAWJP59tls7MiWZvlNt-51" target="FoAWJP59tls7MiWZvlNt-29">
          <mxGeometry relative="1" as="geometry" />
        </mxCell>
        <mxCell id="FoAWJP59tls7MiWZvlNt-51" value="" style="ellipse;whiteSpace=wrap;html=1;aspect=fixed;fillColor=#000000;" vertex="1" parent="1">
          <mxGeometry x="-120" y="330" width="10" height="10" as="geometry" />
        </mxCell>
        <mxCell id="FoAWJP59tls7MiWZvlNt-52" value="&lt;font style=&quot;font-size: 9px;&quot;&gt;Microtipo&lt;br&gt;&lt;/font&gt;" style="text;html=1;strokeColor=none;fillColor=none;align=center;verticalAlign=middle;whiteSpace=wrap;rounded=0;" vertex="1" parent="1">
          <mxGeometry x="-105" y="330" width="35" height="10" as="geometry" />
        </mxCell>
        <mxCell id="FoAWJP59tls7MiWZvlNt-62" style="edgeStyle=orthogonalEdgeStyle;shape=connector;rounded=0;orthogonalLoop=1;jettySize=auto;html=1;entryX=0.448;entryY=0.03;entryDx=0;entryDy=0;entryPerimeter=0;labelBackgroundColor=default;strokeColor=#FF3333;strokeWidth=2;fontFamily=Helvetica;fontSize=11;fontColor=default;endArrow=none;endFill=0;" edge="1" parent="1" source="FoAWJP59tls7MiWZvlNt-56" target="NKGvH9Crkrx0q5OSbga0-52">
          <mxGeometry relative="1" as="geometry" />
        </mxCell>
        <mxCell id="FoAWJP59tls7MiWZvlNt-56" value="" style="ellipse;whiteSpace=wrap;html=1;aspect=fixed;fillColor=#000000;" vertex="1" parent="1">
          <mxGeometry x="710" y="20" width="10" height="10" as="geometry" />
        </mxCell>
        <mxCell id="FoAWJP59tls7MiWZvlNt-57" value="&lt;font style=&quot;font-size: 9px;&quot;&gt;Codice&lt;br&gt;&lt;/font&gt;" style="text;html=1;strokeColor=none;fillColor=none;align=center;verticalAlign=middle;whiteSpace=wrap;rounded=0;" vertex="1" parent="1">
          <mxGeometry x="725" y="20" width="20" height="10" as="geometry" />
        </mxCell>
        <mxCell id="FoAWJP59tls7MiWZvlNt-63" style="edgeStyle=orthogonalEdgeStyle;shape=connector;rounded=0;orthogonalLoop=1;jettySize=auto;html=1;entryX=0.556;entryY=0.01;entryDx=0;entryDy=0;entryPerimeter=0;labelBackgroundColor=default;strokeColor=#FF3333;strokeWidth=2;fontFamily=Helvetica;fontSize=11;fontColor=default;endArrow=none;endFill=0;" edge="1" parent="1" source="FoAWJP59tls7MiWZvlNt-58" target="NKGvH9Crkrx0q5OSbga0-52">
          <mxGeometry relative="1" as="geometry" />
        </mxCell>
        <mxCell id="FoAWJP59tls7MiWZvlNt-58" value="" style="ellipse;whiteSpace=wrap;html=1;aspect=fixed;fillColor=#FFFFFF;" vertex="1" parent="1">
          <mxGeometry x="720" y="30" width="10" height="10" as="geometry" />
        </mxCell>
        <mxCell id="FoAWJP59tls7MiWZvlNt-59" value="&lt;font style=&quot;font-size: 9px;&quot;&gt;Nome&lt;br&gt;&lt;/font&gt;" style="text;html=1;strokeColor=none;fillColor=none;align=center;verticalAlign=middle;whiteSpace=wrap;rounded=0;" vertex="1" parent="1">
          <mxGeometry x="730" y="30" width="35" height="10" as="geometry" />
        </mxCell>
        <mxCell id="FoAWJP59tls7MiWZvlNt-64" style="edgeStyle=orthogonalEdgeStyle;shape=connector;rounded=0;orthogonalLoop=1;jettySize=auto;html=1;entryX=0.712;entryY=-0.01;entryDx=0;entryDy=0;entryPerimeter=0;labelBackgroundColor=default;strokeColor=#FF3333;strokeWidth=2;fontFamily=Helvetica;fontSize=11;fontColor=default;endArrow=none;endFill=0;" edge="1" parent="1" source="FoAWJP59tls7MiWZvlNt-60" target="NKGvH9Crkrx0q5OSbga0-52">
          <mxGeometry relative="1" as="geometry">
            <Array as="points">
              <mxPoint x="735" y="60" />
              <mxPoint x="741" y="60" />
            </Array>
          </mxGeometry>
        </mxCell>
        <mxCell id="FoAWJP59tls7MiWZvlNt-60" value="" style="ellipse;whiteSpace=wrap;html=1;aspect=fixed;fillColor=#FFFFFF;" vertex="1" parent="1">
          <mxGeometry x="730" y="40" width="10" height="10" as="geometry" />
        </mxCell>
        <mxCell id="FoAWJP59tls7MiWZvlNt-61" value="&lt;font style=&quot;font-size: 9px;&quot;&gt;Cognome&lt;br&gt;&lt;/font&gt;" style="text;html=1;strokeColor=none;fillColor=none;align=center;verticalAlign=middle;whiteSpace=wrap;rounded=0;" vertex="1" parent="1">
          <mxGeometry x="740" y="40" width="45" height="10" as="geometry" />
        </mxCell>
        <mxCell id="FoAWJP59tls7MiWZvlNt-76" style="edgeStyle=orthogonalEdgeStyle;shape=connector;rounded=0;orthogonalLoop=1;jettySize=auto;html=1;entryX=0.039;entryY=0.571;entryDx=0;entryDy=0;entryPerimeter=0;labelBackgroundColor=default;strokeColor=#FF3333;strokeWidth=2;fontFamily=Helvetica;fontSize=11;fontColor=default;endArrow=none;endFill=0;" edge="1" parent="1" source="FoAWJP59tls7MiWZvlNt-70" target="NKGvH9Crkrx0q5OSbga0-61">
          <mxGeometry relative="1" as="geometry" />
        </mxCell>
        <mxCell id="FoAWJP59tls7MiWZvlNt-70" value="" style="ellipse;whiteSpace=wrap;html=1;aspect=fixed;" vertex="1" parent="1">
          <mxGeometry x="590" y="330" width="10" height="10" as="geometry" />
        </mxCell>
        <mxCell id="FoAWJP59tls7MiWZvlNt-78" style="edgeStyle=orthogonalEdgeStyle;shape=connector;rounded=0;orthogonalLoop=1;jettySize=auto;html=1;entryX=0.12;entryY=0.6;entryDx=0;entryDy=0;entryPerimeter=0;labelBackgroundColor=default;strokeColor=#FF3333;strokeWidth=2;fontFamily=Helvetica;fontSize=11;fontColor=default;endArrow=none;endFill=0;" edge="1" parent="1" source="FoAWJP59tls7MiWZvlNt-71" target="NKGvH9Crkrx0q5OSbga0-61">
          <mxGeometry relative="1" as="geometry">
            <Array as="points">
              <mxPoint x="605" y="290" />
              <mxPoint x="604" y="290" />
            </Array>
          </mxGeometry>
        </mxCell>
        <mxCell id="FoAWJP59tls7MiWZvlNt-71" value="" style="ellipse;whiteSpace=wrap;html=1;aspect=fixed;" vertex="1" parent="1">
          <mxGeometry x="600" y="320" width="10" height="10" as="geometry" />
        </mxCell>
        <mxCell id="FoAWJP59tls7MiWZvlNt-79" style="edgeStyle=orthogonalEdgeStyle;shape=connector;rounded=0;orthogonalLoop=1;jettySize=auto;html=1;entryX=0.211;entryY=0.724;entryDx=0;entryDy=0;entryPerimeter=0;labelBackgroundColor=default;strokeColor=#FF3333;strokeWidth=2;fontFamily=Helvetica;fontSize=11;fontColor=default;endArrow=none;endFill=0;" edge="1" parent="1" source="FoAWJP59tls7MiWZvlNt-72" target="NKGvH9Crkrx0q5OSbga0-61">
          <mxGeometry relative="1" as="geometry" />
        </mxCell>
        <mxCell id="FoAWJP59tls7MiWZvlNt-72" value="" style="ellipse;whiteSpace=wrap;html=1;aspect=fixed;" vertex="1" parent="1">
          <mxGeometry x="610" y="310" width="10" height="10" as="geometry" />
        </mxCell>
        <mxCell id="FoAWJP59tls7MiWZvlNt-73" value="&lt;font style=&quot;font-size: 9px;&quot;&gt;Testo&lt;br&gt;&lt;/font&gt;" style="text;html=1;strokeColor=none;fillColor=none;align=center;verticalAlign=middle;whiteSpace=wrap;rounded=0;" vertex="1" parent="1">
          <mxGeometry x="600" y="330" width="20" height="10" as="geometry" />
        </mxCell>
        <mxCell id="FoAWJP59tls7MiWZvlNt-74" value="&lt;font style=&quot;font-size: 9px;&quot;&gt;Data&lt;br&gt;&lt;/font&gt;" style="text;html=1;strokeColor=none;fillColor=none;align=center;verticalAlign=middle;whiteSpace=wrap;rounded=0;" vertex="1" parent="1">
          <mxGeometry x="610" y="320" width="20" height="10" as="geometry" />
        </mxCell>
        <mxCell id="FoAWJP59tls7MiWZvlNt-75" value="&lt;font style=&quot;font-size: 9px;&quot;&gt;Voto&lt;br&gt;&lt;/font&gt;" style="text;html=1;strokeColor=none;fillColor=none;align=center;verticalAlign=middle;whiteSpace=wrap;rounded=0;" vertex="1" parent="1">
          <mxGeometry x="620" y="310" width="20" height="10" as="geometry" />
        </mxCell>
        <mxCell id="FoAWJP59tls7MiWZvlNt-82" style="edgeStyle=orthogonalEdgeStyle;shape=connector;rounded=0;orthogonalLoop=1;jettySize=auto;html=1;entryX=0.163;entryY=0.648;entryDx=0;entryDy=0;entryPerimeter=0;labelBackgroundColor=default;strokeColor=#FF3333;strokeWidth=2;fontFamily=Helvetica;fontSize=11;fontColor=default;endArrow=none;endFill=0;" edge="1" parent="1" source="FoAWJP59tls7MiWZvlNt-80" target="NKGvH9Crkrx0q5OSbga0-59">
          <mxGeometry relative="1" as="geometry" />
        </mxCell>
        <mxCell id="FoAWJP59tls7MiWZvlNt-80" value="" style="ellipse;whiteSpace=wrap;html=1;aspect=fixed;" vertex="1" parent="1">
          <mxGeometry x="745" y="320" width="10" height="10" as="geometry" />
        </mxCell>
        <mxCell id="FoAWJP59tls7MiWZvlNt-81" value="&lt;font style=&quot;font-size: 9px;&quot;&gt;Voto&lt;br&gt;&lt;/font&gt;" style="text;html=1;strokeColor=none;fillColor=none;align=center;verticalAlign=middle;whiteSpace=wrap;rounded=0;" vertex="1" parent="1">
          <mxGeometry x="755" y="320" width="20" height="10" as="geometry" />
        </mxCell>
        <mxCell id="FoAWJP59tls7MiWZvlNt-83" value="&lt;font style=&quot;font-size: 15px;&quot;&gt;CasaProduzione&lt;/font&gt;" style="rounded=1;arcSize=10;whiteSpace=wrap;html=1;align=center;strokeWidth=3;strokeColor=#FF3333;" vertex="1" parent="1">
          <mxGeometry x="170" y="480" width="120" height="40" as="geometry" />
        </mxCell>
        <mxCell id="FoAWJP59tls7MiWZvlNt-85" style="edgeStyle=orthogonalEdgeStyle;shape=connector;rounded=0;orthogonalLoop=1;jettySize=auto;html=1;entryX=0.5;entryY=0;entryDx=0;entryDy=0;labelBackgroundColor=default;strokeColor=#FF3333;strokeWidth=2;fontFamily=Helvetica;fontSize=11;fontColor=default;endArrow=none;endFill=0;" edge="1" parent="1" source="FoAWJP59tls7MiWZvlNt-84" target="FoAWJP59tls7MiWZvlNt-83">
          <mxGeometry relative="1" as="geometry" />
        </mxCell>
        <mxCell id="FoAWJP59tls7MiWZvlNt-86" style="edgeStyle=orthogonalEdgeStyle;shape=connector;rounded=0;orthogonalLoop=1;jettySize=auto;html=1;entryX=0;entryY=1;entryDx=0;entryDy=0;labelBackgroundColor=default;strokeColor=#FF3333;strokeWidth=2;fontFamily=Helvetica;fontSize=11;fontColor=default;endArrow=none;endFill=0;exitX=0.5;exitY=0;exitDx=0;exitDy=0;" edge="1" parent="1" source="FoAWJP59tls7MiWZvlNt-84" target="gfvizb78fDKN9hPaAQz3-2">
          <mxGeometry relative="1" as="geometry">
            <Array as="points">
              <mxPoint x="230" y="380" />
            </Array>
          </mxGeometry>
        </mxCell>
        <mxCell id="FoAWJP59tls7MiWZvlNt-84" value="&lt;font style=&quot;font-size: 15px;&quot;&gt;Produzione&lt;/font&gt;" style="shape=rhombus;perimeter=rhombusPerimeter;whiteSpace=wrap;html=1;align=center;strokeWidth=3;strokeColor=#FF3333;" vertex="1" parent="1">
          <mxGeometry x="170" y="390" width="120" height="60" as="geometry" />
        </mxCell>
        <mxCell id="FoAWJP59tls7MiWZvlNt-87" value="&lt;font style=&quot;font-size: 15px;&quot;&gt;(1, 1)&lt;/font&gt;" style="text;html=1;strokeColor=none;fillColor=none;align=center;verticalAlign=middle;whiteSpace=wrap;rounded=0;" vertex="1" parent="1">
          <mxGeometry x="245" y="380" width="60" height="30" as="geometry" />
        </mxCell>
        <mxCell id="FoAWJP59tls7MiWZvlNt-88" value="&lt;font style=&quot;font-size: 15px;&quot;&gt;(1, N)&lt;/font&gt;" style="text;html=1;strokeColor=none;fillColor=none;align=center;verticalAlign=middle;whiteSpace=wrap;rounded=0;" vertex="1" parent="1">
          <mxGeometry x="245" y="430" width="60" height="30" as="geometry" />
        </mxCell>
        <mxCell id="FoAWJP59tls7MiWZvlNt-91" style="edgeStyle=orthogonalEdgeStyle;shape=connector;rounded=0;orthogonalLoop=1;jettySize=auto;html=1;entryX=0.092;entryY=0.6;entryDx=0;entryDy=0;entryPerimeter=0;labelBackgroundColor=default;strokeColor=#FF3333;strokeWidth=2;fontFamily=Helvetica;fontSize=11;fontColor=default;endArrow=none;endFill=0;" edge="1" parent="1" source="FoAWJP59tls7MiWZvlNt-89" target="FoAWJP59tls7MiWZvlNt-84">
          <mxGeometry relative="1" as="geometry" />
        </mxCell>
        <mxCell id="FoAWJP59tls7MiWZvlNt-89" value="" style="ellipse;whiteSpace=wrap;html=1;aspect=fixed;" vertex="1" parent="1">
          <mxGeometry x="175" y="460" width="10" height="10" as="geometry" />
        </mxCell>
        <mxCell id="FoAWJP59tls7MiWZvlNt-90" value="&lt;font style=&quot;font-size: 9px;&quot;&gt;Anno&lt;br&gt;&lt;/font&gt;" style="text;html=1;strokeColor=none;fillColor=none;align=center;verticalAlign=middle;whiteSpace=wrap;rounded=0;" vertex="1" parent="1">
          <mxGeometry x="185" y="460" width="25" height="10" as="geometry" />
        </mxCell>
        <mxCell id="FoAWJP59tls7MiWZvlNt-94" style="edgeStyle=orthogonalEdgeStyle;shape=connector;rounded=0;orthogonalLoop=1;jettySize=auto;html=1;entryX=0.539;entryY=1.021;entryDx=0;entryDy=0;entryPerimeter=0;labelBackgroundColor=default;strokeColor=#FF3333;strokeWidth=2;fontFamily=Helvetica;fontSize=11;fontColor=default;endArrow=none;endFill=0;" edge="1" parent="1" source="FoAWJP59tls7MiWZvlNt-92" target="FoAWJP59tls7MiWZvlNt-83">
          <mxGeometry relative="1" as="geometry" />
        </mxCell>
        <mxCell id="FoAWJP59tls7MiWZvlNt-92" value="" style="ellipse;whiteSpace=wrap;html=1;aspect=fixed;fillColor=#000000;" vertex="1" parent="1">
          <mxGeometry x="230" y="545" width="10" height="10" as="geometry" />
        </mxCell>
        <mxCell id="FoAWJP59tls7MiWZvlNt-93" value="&lt;font style=&quot;font-size: 9px;&quot;&gt;Nome&lt;br&gt;&lt;/font&gt;" style="text;html=1;strokeColor=none;fillColor=none;align=center;verticalAlign=middle;whiteSpace=wrap;rounded=0;" vertex="1" parent="1">
          <mxGeometry x="245" y="545" width="20" height="10" as="geometry" />
        </mxCell>
        <mxCell id="FoAWJP59tls7MiWZvlNt-96" value="&lt;font style=&quot;font-size: 15px;&quot;&gt;(1, 1)&lt;/font&gt;" style="text;html=1;strokeColor=none;fillColor=none;align=center;verticalAlign=middle;whiteSpace=wrap;rounded=0;" vertex="1" parent="1">
          <mxGeometry x="495" y="470" width="60" height="30" as="geometry" />
        </mxCell>
        <mxCell id="FoAWJP59tls7MiWZvlNt-97" value="&lt;font style=&quot;font-size: 15px;&quot;&gt;(0, N)&lt;/font&gt;" style="text;html=1;strokeColor=none;fillColor=none;align=center;verticalAlign=middle;whiteSpace=wrap;rounded=0;" vertex="1" parent="1">
          <mxGeometry x="590" y="520" width="60" height="30" as="geometry" />
        </mxCell>
        <mxCell id="FoAWJP59tls7MiWZvlNt-102" style="edgeStyle=orthogonalEdgeStyle;shape=connector;rounded=0;orthogonalLoop=1;jettySize=auto;html=1;labelBackgroundColor=default;strokeColor=#FF3333;strokeWidth=2;fontFamily=Helvetica;fontSize=11;fontColor=default;endArrow=none;endFill=0;entryX=0.059;entryY=0.061;entryDx=0;entryDy=0;entryPerimeter=0;" edge="1" parent="1" source="FoAWJP59tls7MiWZvlNt-98" target="gfvizb78fDKN9hPaAQz3-34">
          <mxGeometry relative="1" as="geometry">
            <mxPoint x="540" y="610" as="targetPoint" />
          </mxGeometry>
        </mxCell>
        <mxCell id="FoAWJP59tls7MiWZvlNt-98" value="" style="ellipse;whiteSpace=wrap;html=1;aspect=fixed;fillColor=#000000;" vertex="1" parent="1">
          <mxGeometry x="550" y="615" width="10" height="10" as="geometry" />
        </mxCell>
        <mxCell id="FoAWJP59tls7MiWZvlNt-99" value="&lt;font style=&quot;font-size: 9px;&quot;&gt;Codice&lt;br&gt;&lt;/font&gt;" style="text;html=1;strokeColor=none;fillColor=none;align=center;verticalAlign=middle;whiteSpace=wrap;rounded=0;" vertex="1" parent="1">
          <mxGeometry x="565" y="615" width="20" height="10" as="geometry" />
        </mxCell>
        <mxCell id="FoAWJP59tls7MiWZvlNt-103" style="edgeStyle=orthogonalEdgeStyle;shape=connector;rounded=0;orthogonalLoop=1;jettySize=auto;html=1;entryX=0.15;entryY=0.046;entryDx=0;entryDy=0;entryPerimeter=0;labelBackgroundColor=default;strokeColor=#FF3333;strokeWidth=2;fontFamily=Helvetica;fontSize=11;fontColor=default;endArrow=none;endFill=0;" edge="1" parent="1" source="FoAWJP59tls7MiWZvlNt-100" target="gfvizb78fDKN9hPaAQz3-34">
          <mxGeometry relative="1" as="geometry" />
        </mxCell>
        <mxCell id="FoAWJP59tls7MiWZvlNt-100" value="" style="ellipse;whiteSpace=wrap;html=1;aspect=fixed;fillColor=#FFFFFF;" vertex="1" parent="1">
          <mxGeometry x="560" y="625" width="10" height="10" as="geometry" />
        </mxCell>
        <mxCell id="FoAWJP59tls7MiWZvlNt-101" value="&lt;font style=&quot;font-size: 9px;&quot;&gt;Nome&lt;br&gt;&lt;/font&gt;" style="text;html=1;strokeColor=none;fillColor=none;align=center;verticalAlign=middle;whiteSpace=wrap;rounded=0;" vertex="1" parent="1">
          <mxGeometry x="575" y="625" width="20" height="10" as="geometry" />
        </mxCell>
        <mxCell id="FoAWJP59tls7MiWZvlNt-106" style="edgeStyle=orthogonalEdgeStyle;shape=connector;rounded=0;orthogonalLoop=1;jettySize=auto;html=1;entryX=0.5;entryY=0;entryDx=0;entryDy=0;labelBackgroundColor=default;strokeColor=#FF3333;strokeWidth=2;fontFamily=Helvetica;fontSize=11;fontColor=default;endArrow=none;endFill=0;" edge="1" parent="1" source="FoAWJP59tls7MiWZvlNt-104" target="NKGvH9Crkrx0q5OSbga0-2">
          <mxGeometry relative="1" as="geometry" />
        </mxCell>
        <mxCell id="FoAWJP59tls7MiWZvlNt-104" value="" style="ellipse;whiteSpace=wrap;html=1;aspect=fixed;fillColor=#000000;" vertex="1" parent="1">
          <mxGeometry x="-80" y="625" width="10" height="10" as="geometry" />
        </mxCell>
        <mxCell id="FoAWJP59tls7MiWZvlNt-105" value="&lt;font style=&quot;font-size: 9px;&quot;&gt;Nome&lt;br&gt;&lt;/font&gt;" style="text;html=1;strokeColor=none;fillColor=none;align=center;verticalAlign=middle;whiteSpace=wrap;rounded=0;" vertex="1" parent="1">
          <mxGeometry x="-65" y="625" width="20" height="10" as="geometry" />
        </mxCell>
        <mxCell id="FoAWJP59tls7MiWZvlNt-117" style="edgeStyle=orthogonalEdgeStyle;shape=connector;rounded=0;orthogonalLoop=1;jettySize=auto;html=1;entryX=0.551;entryY=1.018;entryDx=0;entryDy=0;entryPerimeter=0;labelBackgroundColor=default;strokeColor=#00FF00;strokeWidth=2;fontFamily=Helvetica;fontSize=11;fontColor=default;endArrow=none;endFill=0;" edge="1" parent="1" source="FoAWJP59tls7MiWZvlNt-107" target="NKGvH9Crkrx0q5OSbga0-9">
          <mxGeometry relative="1" as="geometry" />
        </mxCell>
        <mxCell id="FoAWJP59tls7MiWZvlNt-107" value="" style="ellipse;whiteSpace=wrap;html=1;aspect=fixed;fillColor=#000000;" vertex="1" parent="1">
          <mxGeometry x="325" y="750" width="10" height="10" as="geometry" />
        </mxCell>
        <mxCell id="FoAWJP59tls7MiWZvlNt-118" style="edgeStyle=orthogonalEdgeStyle;shape=connector;rounded=0;orthogonalLoop=1;jettySize=auto;html=1;entryX=0.649;entryY=1.032;entryDx=0;entryDy=0;entryPerimeter=0;labelBackgroundColor=default;strokeColor=#00FF00;strokeWidth=2;fontFamily=Helvetica;fontSize=11;fontColor=default;endArrow=none;endFill=0;" edge="1" parent="1" source="FoAWJP59tls7MiWZvlNt-108" target="NKGvH9Crkrx0q5OSbga0-9">
          <mxGeometry relative="1" as="geometry" />
        </mxCell>
        <mxCell id="FoAWJP59tls7MiWZvlNt-108" value="" style="ellipse;whiteSpace=wrap;html=1;aspect=fixed;" vertex="1" parent="1">
          <mxGeometry x="335" y="740" width="10" height="10" as="geometry" />
        </mxCell>
        <mxCell id="FoAWJP59tls7MiWZvlNt-119" style="edgeStyle=orthogonalEdgeStyle;shape=connector;rounded=0;orthogonalLoop=1;jettySize=auto;html=1;entryX=0.75;entryY=1;entryDx=0;entryDy=0;labelBackgroundColor=default;strokeColor=#00FF00;strokeWidth=2;fontFamily=Helvetica;fontSize=11;fontColor=default;endArrow=none;endFill=0;" edge="1" parent="1" source="FoAWJP59tls7MiWZvlNt-109" target="NKGvH9Crkrx0q5OSbga0-9">
          <mxGeometry relative="1" as="geometry" />
        </mxCell>
        <mxCell id="FoAWJP59tls7MiWZvlNt-109" value="" style="ellipse;whiteSpace=wrap;html=1;aspect=fixed;" vertex="1" parent="1">
          <mxGeometry x="345" y="730" width="10" height="10" as="geometry" />
        </mxCell>
        <mxCell id="FoAWJP59tls7MiWZvlNt-120" style="edgeStyle=orthogonalEdgeStyle;shape=connector;rounded=0;orthogonalLoop=1;jettySize=auto;html=1;entryX=0.86;entryY=1.004;entryDx=0;entryDy=0;entryPerimeter=0;labelBackgroundColor=default;strokeColor=#00FF00;strokeWidth=2;fontFamily=Helvetica;fontSize=11;fontColor=default;endArrow=none;endFill=0;" edge="1" parent="1" source="FoAWJP59tls7MiWZvlNt-110" target="NKGvH9Crkrx0q5OSbga0-9">
          <mxGeometry relative="1" as="geometry" />
        </mxCell>
        <mxCell id="FoAWJP59tls7MiWZvlNt-110" value="" style="ellipse;whiteSpace=wrap;html=1;aspect=fixed;" vertex="1" parent="1">
          <mxGeometry x="355" y="720" width="10" height="10" as="geometry" />
        </mxCell>
        <mxCell id="FoAWJP59tls7MiWZvlNt-111" value="&lt;font style=&quot;font-size: 9px;&quot;&gt;ID&lt;br&gt;&lt;/font&gt;" style="text;html=1;strokeColor=none;fillColor=none;align=center;verticalAlign=middle;whiteSpace=wrap;rounded=0;" vertex="1" parent="1">
          <mxGeometry x="335" y="750" width="20" height="10" as="geometry" />
        </mxCell>
        <mxCell id="FoAWJP59tls7MiWZvlNt-112" value="&lt;font style=&quot;font-size: 9px;&quot;&gt;Risoluzione&lt;br&gt;&lt;/font&gt;" style="text;html=1;strokeColor=none;fillColor=none;align=center;verticalAlign=middle;whiteSpace=wrap;rounded=0;" vertex="1" parent="1">
          <mxGeometry x="345" y="740" width="55" height="10" as="geometry" />
        </mxCell>
        <mxCell id="FoAWJP59tls7MiWZvlNt-113" value="&lt;font style=&quot;font-size: 9px;&quot;&gt;Rapporto D&#39;Aspetto&lt;br&gt;&lt;/font&gt;" style="text;html=1;strokeColor=none;fillColor=none;align=center;verticalAlign=middle;whiteSpace=wrap;rounded=0;" vertex="1" parent="1">
          <mxGeometry x="355" y="730" width="85" height="10" as="geometry" />
        </mxCell>
        <mxCell id="FoAWJP59tls7MiWZvlNt-114" value="&lt;font style=&quot;font-size: 9px;&quot;&gt;Dimensione&lt;br&gt;&lt;/font&gt;" style="text;html=1;strokeColor=none;fillColor=none;align=center;verticalAlign=middle;whiteSpace=wrap;rounded=0;" vertex="1" parent="1">
          <mxGeometry x="365" y="720" width="50" height="10" as="geometry" />
        </mxCell>
        <mxCell id="FoAWJP59tls7MiWZvlNt-121" style="edgeStyle=orthogonalEdgeStyle;shape=connector;rounded=0;orthogonalLoop=1;jettySize=auto;html=1;entryX=1;entryY=1;entryDx=0;entryDy=0;labelBackgroundColor=default;strokeColor=#00FF00;strokeWidth=2;fontFamily=Helvetica;fontSize=11;fontColor=default;endArrow=none;endFill=0;" edge="1" parent="1" source="FoAWJP59tls7MiWZvlNt-115" target="NKGvH9Crkrx0q5OSbga0-9">
          <mxGeometry relative="1" as="geometry" />
        </mxCell>
        <mxCell id="FoAWJP59tls7MiWZvlNt-115" value="" style="ellipse;whiteSpace=wrap;html=1;aspect=fixed;" vertex="1" parent="1">
          <mxGeometry x="367.5" y="710" width="10" height="10" as="geometry" />
        </mxCell>
        <mxCell id="FoAWJP59tls7MiWZvlNt-116" value="&lt;font style=&quot;font-size: 9px;&quot;&gt;Lunghezza&lt;br&gt;&lt;/font&gt;" style="text;html=1;strokeColor=none;fillColor=none;align=center;verticalAlign=middle;whiteSpace=wrap;rounded=0;" vertex="1" parent="1">
          <mxGeometry x="377.5" y="710" width="50" height="10" as="geometry" />
        </mxCell>
        <mxCell id="FoAWJP59tls7MiWZvlNt-132" style="edgeStyle=orthogonalEdgeStyle;shape=connector;rounded=0;orthogonalLoop=1;jettySize=auto;html=1;entryX=0.547;entryY=1.05;entryDx=0;entryDy=0;entryPerimeter=0;labelBackgroundColor=default;strokeColor=#00FF00;strokeWidth=2;fontFamily=Helvetica;fontSize=11;fontColor=default;endArrow=none;endFill=0;" edge="1" parent="1" source="FoAWJP59tls7MiWZvlNt-122" target="NKGvH9Crkrx0q5OSbga0-133">
          <mxGeometry relative="1" as="geometry" />
        </mxCell>
        <mxCell id="FoAWJP59tls7MiWZvlNt-122" value="" style="ellipse;whiteSpace=wrap;html=1;aspect=fixed;fillColor=#000000;" vertex="1" parent="1">
          <mxGeometry x="550" y="870" width="10" height="10" as="geometry" />
        </mxCell>
        <mxCell id="FoAWJP59tls7MiWZvlNt-126" value="&lt;font style=&quot;font-size: 9px;&quot;&gt;Tipo&lt;br&gt;&lt;/font&gt;" style="text;html=1;strokeColor=none;fillColor=none;align=center;verticalAlign=middle;whiteSpace=wrap;rounded=0;" vertex="1" parent="1">
          <mxGeometry x="560" y="870" width="20" height="10" as="geometry" />
        </mxCell>
        <mxCell id="FoAWJP59tls7MiWZvlNt-159" style="edgeStyle=orthogonalEdgeStyle;shape=connector;rounded=0;orthogonalLoop=1;jettySize=auto;html=1;entryX=0.345;entryY=1.012;entryDx=0;entryDy=0;entryPerimeter=0;labelBackgroundColor=default;strokeColor=#00FF00;strokeWidth=2;fontFamily=Helvetica;fontSize=11;fontColor=default;endArrow=none;endFill=0;" edge="1" parent="1" source="FoAWJP59tls7MiWZvlNt-143" target="NKGvH9Crkrx0q5OSbga0-134">
          <mxGeometry relative="1" as="geometry" />
        </mxCell>
        <mxCell id="FoAWJP59tls7MiWZvlNt-143" value="" style="ellipse;whiteSpace=wrap;html=1;aspect=fixed;fillColor=#000000;" vertex="1" parent="1">
          <mxGeometry x="970" y="895" width="10" height="10" as="geometry" />
        </mxCell>
        <mxCell id="FoAWJP59tls7MiWZvlNt-158" style="edgeStyle=orthogonalEdgeStyle;shape=connector;rounded=0;orthogonalLoop=1;jettySize=auto;html=1;entryX=0.453;entryY=1.047;entryDx=0;entryDy=0;entryPerimeter=0;labelBackgroundColor=default;strokeColor=#00FF00;strokeWidth=2;fontFamily=Helvetica;fontSize=11;fontColor=default;endArrow=none;endFill=0;" edge="1" parent="1" source="FoAWJP59tls7MiWZvlNt-144" target="NKGvH9Crkrx0q5OSbga0-134">
          <mxGeometry relative="1" as="geometry" />
        </mxCell>
        <mxCell id="FoAWJP59tls7MiWZvlNt-144" value="" style="ellipse;whiteSpace=wrap;html=1;aspect=fixed;fillColor=#000000;" vertex="1" parent="1">
          <mxGeometry x="980" y="885" width="10" height="10" as="geometry" />
        </mxCell>
        <mxCell id="FoAWJP59tls7MiWZvlNt-157" style="edgeStyle=orthogonalEdgeStyle;shape=connector;rounded=0;orthogonalLoop=1;jettySize=auto;html=1;entryX=0.551;entryY=1.026;entryDx=0;entryDy=0;entryPerimeter=0;labelBackgroundColor=default;strokeColor=#00FF00;strokeWidth=2;fontFamily=Helvetica;fontSize=11;fontColor=default;endArrow=none;endFill=0;" edge="1" parent="1" source="FoAWJP59tls7MiWZvlNt-145" target="NKGvH9Crkrx0q5OSbga0-134">
          <mxGeometry relative="1" as="geometry" />
        </mxCell>
        <mxCell id="FoAWJP59tls7MiWZvlNt-145" value="" style="ellipse;whiteSpace=wrap;html=1;aspect=fixed;" vertex="1" parent="1">
          <mxGeometry x="990" y="875" width="10" height="10" as="geometry" />
        </mxCell>
        <mxCell id="FoAWJP59tls7MiWZvlNt-156" style="edgeStyle=orthogonalEdgeStyle;shape=connector;rounded=0;orthogonalLoop=1;jettySize=auto;html=1;entryX=0.645;entryY=1.006;entryDx=0;entryDy=0;entryPerimeter=0;labelBackgroundColor=default;strokeColor=#00FF00;strokeWidth=2;fontFamily=Helvetica;fontSize=11;fontColor=default;endArrow=none;endFill=0;" edge="1" parent="1" source="FoAWJP59tls7MiWZvlNt-146" target="NKGvH9Crkrx0q5OSbga0-134">
          <mxGeometry relative="1" as="geometry" />
        </mxCell>
        <mxCell id="FoAWJP59tls7MiWZvlNt-146" value="" style="ellipse;whiteSpace=wrap;html=1;aspect=fixed;" vertex="1" parent="1">
          <mxGeometry x="1000" y="865" width="10" height="10" as="geometry" />
        </mxCell>
        <mxCell id="FoAWJP59tls7MiWZvlNt-147" value="&lt;font style=&quot;font-size: 9px;&quot;&gt;Tipo&lt;br&gt;&lt;/font&gt;" style="text;html=1;strokeColor=none;fillColor=none;align=center;verticalAlign=middle;whiteSpace=wrap;rounded=0;" vertex="1" parent="1">
          <mxGeometry x="980" y="895" width="20" height="10" as="geometry" />
        </mxCell>
        <mxCell id="FoAWJP59tls7MiWZvlNt-148" value="&lt;font style=&quot;font-size: 9px;&quot;&gt;Versione&lt;br&gt;&lt;/font&gt;" style="text;html=1;strokeColor=none;fillColor=none;align=center;verticalAlign=middle;whiteSpace=wrap;rounded=0;" vertex="1" parent="1">
          <mxGeometry x="990" y="885" width="40" height="10" as="geometry" />
        </mxCell>
        <mxCell id="FoAWJP59tls7MiWZvlNt-149" value="&lt;font style=&quot;font-size: 9px;&quot;&gt;Anno&lt;br&gt;&lt;/font&gt;" style="text;html=1;strokeColor=none;fillColor=none;align=center;verticalAlign=middle;whiteSpace=wrap;rounded=0;" vertex="1" parent="1">
          <mxGeometry x="1000" y="875" width="30" height="10" as="geometry" />
        </mxCell>
        <mxCell id="FoAWJP59tls7MiWZvlNt-150" value="&lt;font style=&quot;font-size: 9px;&quot;&gt;Bitrate&lt;br&gt;&lt;/font&gt;" style="text;html=1;strokeColor=none;fillColor=none;align=center;verticalAlign=middle;whiteSpace=wrap;rounded=0;" vertex="1" parent="1">
          <mxGeometry x="1010" y="865" width="30" height="10" as="geometry" />
        </mxCell>
        <mxCell id="FoAWJP59tls7MiWZvlNt-155" style="edgeStyle=orthogonalEdgeStyle;shape=connector;rounded=0;orthogonalLoop=1;jettySize=auto;html=1;entryX=0.709;entryY=1.04;entryDx=0;entryDy=0;entryPerimeter=0;labelBackgroundColor=default;strokeColor=#00FF00;strokeWidth=2;fontFamily=Helvetica;fontSize=11;fontColor=default;endArrow=none;endFill=0;" edge="1" parent="1" source="FoAWJP59tls7MiWZvlNt-151" target="NKGvH9Crkrx0q5OSbga0-134">
          <mxGeometry relative="1" as="geometry">
            <Array as="points">
              <mxPoint x="1017" y="840" />
              <mxPoint x="1011" y="840" />
            </Array>
          </mxGeometry>
        </mxCell>
        <mxCell id="FoAWJP59tls7MiWZvlNt-151" value="" style="ellipse;whiteSpace=wrap;html=1;aspect=fixed;" vertex="1" parent="1">
          <mxGeometry x="1012.5" y="855" width="10" height="10" as="geometry" />
        </mxCell>
        <mxCell id="FoAWJP59tls7MiWZvlNt-152" value="&lt;font style=&quot;font-size: 9px;&quot;&gt;Lossy&lt;br&gt;&lt;/font&gt;" style="text;html=1;strokeColor=none;fillColor=none;align=center;verticalAlign=middle;whiteSpace=wrap;rounded=0;" vertex="1" parent="1">
          <mxGeometry x="1022.5" y="855" width="27.5" height="10" as="geometry" />
        </mxCell>
        <mxCell id="FoAWJP59tls7MiWZvlNt-174" style="edgeStyle=orthogonalEdgeStyle;shape=connector;rounded=0;orthogonalLoop=1;jettySize=auto;html=1;entryX=0.608;entryY=-0.008;entryDx=0;entryDy=0;entryPerimeter=0;labelBackgroundColor=default;strokeColor=#FFFF00;strokeWidth=2;fontFamily=Helvetica;fontSize=11;fontColor=default;endArrow=none;endFill=0;" edge="1" parent="1" source="FoAWJP59tls7MiWZvlNt-166" target="NKGvH9Crkrx0q5OSbga0-194">
          <mxGeometry relative="1" as="geometry" />
        </mxCell>
        <mxCell id="FoAWJP59tls7MiWZvlNt-166" value="" style="ellipse;whiteSpace=wrap;html=1;aspect=fixed;fillColor=#000000;" vertex="1" parent="1">
          <mxGeometry x="775" y="675" width="10" height="10" as="geometry" />
        </mxCell>
        <mxCell id="FoAWJP59tls7MiWZvlNt-167" value="&lt;font style=&quot;font-size: 9px;&quot;&gt;Inizio&lt;br&gt;&lt;/font&gt;" style="text;html=1;strokeColor=none;fillColor=none;align=center;verticalAlign=middle;whiteSpace=wrap;rounded=0;" vertex="1" parent="1">
          <mxGeometry x="790" y="675" width="20" height="10" as="geometry" />
        </mxCell>
        <mxCell id="FoAWJP59tls7MiWZvlNt-175" style="edgeStyle=orthogonalEdgeStyle;shape=connector;rounded=0;orthogonalLoop=1;jettySize=auto;html=1;entryX=0.7;entryY=0.013;entryDx=0;entryDy=0;entryPerimeter=0;labelBackgroundColor=default;strokeColor=#FFFF00;strokeWidth=2;fontFamily=Helvetica;fontSize=11;fontColor=default;endArrow=none;endFill=0;" edge="1" parent="1" source="FoAWJP59tls7MiWZvlNt-168" target="NKGvH9Crkrx0q5OSbga0-194">
          <mxGeometry relative="1" as="geometry" />
        </mxCell>
        <mxCell id="FoAWJP59tls7MiWZvlNt-168" value="" style="ellipse;whiteSpace=wrap;html=1;aspect=fixed;fillColor=#000000;" vertex="1" parent="1">
          <mxGeometry x="785" y="685" width="10" height="10" as="geometry" />
        </mxCell>
        <mxCell id="FoAWJP59tls7MiWZvlNt-169" value="&lt;font style=&quot;font-size: 9px;&quot;&gt;Fine&lt;br&gt;&lt;/font&gt;" style="text;html=1;strokeColor=none;fillColor=none;align=center;verticalAlign=middle;whiteSpace=wrap;rounded=0;" vertex="1" parent="1">
          <mxGeometry x="795" y="685" width="25" height="10" as="geometry" />
        </mxCell>
        <mxCell id="FoAWJP59tls7MiWZvlNt-176" style="edgeStyle=orthogonalEdgeStyle;shape=connector;rounded=0;orthogonalLoop=1;jettySize=auto;html=1;entryX=0.808;entryY=-0.015;entryDx=0;entryDy=0;entryPerimeter=0;labelBackgroundColor=default;strokeColor=#FFFF00;strokeWidth=2;fontFamily=Helvetica;fontSize=11;fontColor=default;endArrow=none;endFill=0;" edge="1" parent="1" source="FoAWJP59tls7MiWZvlNt-170" target="NKGvH9Crkrx0q5OSbga0-194">
          <mxGeometry relative="1" as="geometry" />
        </mxCell>
        <mxCell id="FoAWJP59tls7MiWZvlNt-170" value="" style="ellipse;whiteSpace=wrap;html=1;aspect=fixed;fillColor=#000000;" vertex="1" parent="1">
          <mxGeometry x="795" y="695" width="10" height="10" as="geometry" />
        </mxCell>
        <mxCell id="FoAWJP59tls7MiWZvlNt-171" value="&lt;font style=&quot;font-size: 9px;&quot;&gt;DataInizio&lt;br&gt;&lt;/font&gt;" style="text;html=1;strokeColor=none;fillColor=none;align=center;verticalAlign=middle;whiteSpace=wrap;rounded=0;" vertex="1" parent="1">
          <mxGeometry x="805" y="695" width="45" height="10" as="geometry" />
        </mxCell>
        <mxCell id="FoAWJP59tls7MiWZvlNt-177" style="edgeStyle=orthogonalEdgeStyle;shape=connector;rounded=0;orthogonalLoop=1;jettySize=auto;html=1;entryX=0.968;entryY=0.025;entryDx=0;entryDy=0;entryPerimeter=0;labelBackgroundColor=default;strokeColor=#FFFF00;strokeWidth=2;fontFamily=Helvetica;fontSize=11;fontColor=default;endArrow=none;endFill=0;" edge="1" parent="1" source="FoAWJP59tls7MiWZvlNt-172" target="NKGvH9Crkrx0q5OSbga0-194">
          <mxGeometry relative="1" as="geometry">
            <Array as="points">
              <mxPoint x="810" y="726" />
            </Array>
          </mxGeometry>
        </mxCell>
        <mxCell id="FoAWJP59tls7MiWZvlNt-172" value="" style="ellipse;whiteSpace=wrap;html=1;aspect=fixed;fillColor=#000000;" vertex="1" parent="1">
          <mxGeometry x="805" y="705" width="10" height="10" as="geometry" />
        </mxCell>
        <mxCell id="FoAWJP59tls7MiWZvlNt-173" value="&lt;font style=&quot;font-size: 9px;&quot;&gt;DataFine&lt;br&gt;&lt;/font&gt;" style="text;html=1;strokeColor=none;fillColor=none;align=center;verticalAlign=middle;whiteSpace=wrap;rounded=0;" vertex="1" parent="1">
          <mxGeometry x="820" y="705" width="30" height="10" as="geometry" />
        </mxCell>
        <mxCell id="FoAWJP59tls7MiWZvlNt-188" style="edgeStyle=orthogonalEdgeStyle;shape=connector;rounded=0;orthogonalLoop=1;jettySize=auto;html=1;entryX=0.304;entryY=1.01;entryDx=0;entryDy=0;entryPerimeter=0;labelBackgroundColor=default;strokeColor=#FFFF00;strokeWidth=2;fontFamily=Helvetica;fontSize=11;fontColor=default;endArrow=none;endFill=0;" edge="1" parent="1" source="FoAWJP59tls7MiWZvlNt-178" target="NKGvH9Crkrx0q5OSbga0-190">
          <mxGeometry relative="1" as="geometry" />
        </mxCell>
        <mxCell id="FoAWJP59tls7MiWZvlNt-178" value="" style="ellipse;whiteSpace=wrap;html=1;aspect=fixed;fillColor=#000000;" vertex="1" parent="1">
          <mxGeometry x="-95" y="895" width="10" height="10" as="geometry" />
        </mxCell>
        <mxCell id="FoAWJP59tls7MiWZvlNt-189" style="edgeStyle=orthogonalEdgeStyle;shape=connector;rounded=0;orthogonalLoop=1;jettySize=auto;html=1;entryX=0.396;entryY=1.04;entryDx=0;entryDy=0;entryPerimeter=0;labelBackgroundColor=default;strokeColor=#FFFF00;strokeWidth=2;fontFamily=Helvetica;fontSize=11;fontColor=default;endArrow=none;endFill=0;" edge="1" parent="1" source="FoAWJP59tls7MiWZvlNt-179" target="NKGvH9Crkrx0q5OSbga0-190">
          <mxGeometry relative="1" as="geometry" />
        </mxCell>
        <mxCell id="FoAWJP59tls7MiWZvlNt-179" value="" style="ellipse;whiteSpace=wrap;html=1;aspect=fixed;" vertex="1" parent="1">
          <mxGeometry x="-85" y="885" width="10" height="10" as="geometry" />
        </mxCell>
        <mxCell id="FoAWJP59tls7MiWZvlNt-190" style="edgeStyle=orthogonalEdgeStyle;shape=connector;rounded=0;orthogonalLoop=1;jettySize=auto;html=1;entryX=0.5;entryY=1;entryDx=0;entryDy=0;labelBackgroundColor=default;strokeColor=#FFFF00;strokeWidth=2;fontFamily=Helvetica;fontSize=11;fontColor=default;endArrow=none;endFill=0;" edge="1" parent="1" source="FoAWJP59tls7MiWZvlNt-180" target="NKGvH9Crkrx0q5OSbga0-190">
          <mxGeometry relative="1" as="geometry" />
        </mxCell>
        <mxCell id="FoAWJP59tls7MiWZvlNt-180" value="" style="ellipse;whiteSpace=wrap;html=1;aspect=fixed;" vertex="1" parent="1">
          <mxGeometry x="-75" y="875" width="10" height="10" as="geometry" />
        </mxCell>
        <mxCell id="FoAWJP59tls7MiWZvlNt-191" style="edgeStyle=orthogonalEdgeStyle;shape=connector;rounded=0;orthogonalLoop=1;jettySize=auto;html=1;entryX=0.608;entryY=1.01;entryDx=0;entryDy=0;entryPerimeter=0;labelBackgroundColor=default;strokeColor=#FFFF00;strokeWidth=2;fontFamily=Helvetica;fontSize=11;fontColor=default;endArrow=none;endFill=0;" edge="1" parent="1" source="FoAWJP59tls7MiWZvlNt-181" target="NKGvH9Crkrx0q5OSbga0-190">
          <mxGeometry relative="1" as="geometry" />
        </mxCell>
        <mxCell id="FoAWJP59tls7MiWZvlNt-181" value="" style="ellipse;whiteSpace=wrap;html=1;aspect=fixed;" vertex="1" parent="1">
          <mxGeometry x="-65" y="865" width="10" height="10" as="geometry" />
        </mxCell>
        <mxCell id="FoAWJP59tls7MiWZvlNt-182" value="&lt;font style=&quot;font-size: 9px;&quot;&gt;ID&lt;br&gt;&lt;/font&gt;" style="text;html=1;strokeColor=none;fillColor=none;align=center;verticalAlign=middle;whiteSpace=wrap;rounded=0;" vertex="1" parent="1">
          <mxGeometry x="-85" y="895" width="20" height="10" as="geometry" />
        </mxCell>
        <mxCell id="FoAWJP59tls7MiWZvlNt-183" value="&lt;font style=&quot;font-size: 9px;&quot;&gt;Risoluzione&lt;br&gt;&lt;/font&gt;" style="text;html=1;strokeColor=none;fillColor=none;align=center;verticalAlign=middle;whiteSpace=wrap;rounded=0;" vertex="1" parent="1">
          <mxGeometry x="-75" y="885" width="55" height="10" as="geometry" />
        </mxCell>
        <mxCell id="FoAWJP59tls7MiWZvlNt-184" value="&lt;font style=&quot;font-size: 9px;&quot;&gt;Lunghezza Banda&lt;br&gt;&lt;/font&gt;" style="text;html=1;strokeColor=none;fillColor=none;align=center;verticalAlign=middle;whiteSpace=wrap;rounded=0;" vertex="1" parent="1">
          <mxGeometry x="-65" y="875" width="75" height="10" as="geometry" />
        </mxCell>
        <mxCell id="FoAWJP59tls7MiWZvlNt-185" value="&lt;font style=&quot;font-size: 9px;&quot;&gt;Massima Trasmissione&lt;br&gt;&lt;/font&gt;" style="text;html=1;strokeColor=none;fillColor=none;align=center;verticalAlign=middle;whiteSpace=wrap;rounded=0;" vertex="1" parent="1">
          <mxGeometry x="-55" y="865" width="95" height="10" as="geometry" />
        </mxCell>
        <mxCell id="FoAWJP59tls7MiWZvlNt-192" style="edgeStyle=orthogonalEdgeStyle;shape=connector;rounded=0;orthogonalLoop=1;jettySize=auto;html=1;entryX=0.852;entryY=0.96;entryDx=0;entryDy=0;entryPerimeter=0;labelBackgroundColor=default;strokeColor=#FFFF00;strokeWidth=2;fontFamily=Helvetica;fontSize=11;fontColor=default;endArrow=none;endFill=0;" edge="1" parent="1" source="FoAWJP59tls7MiWZvlNt-186" target="NKGvH9Crkrx0q5OSbga0-190">
          <mxGeometry relative="1" as="geometry">
            <Array as="points">
              <mxPoint x="-50" y="840" />
              <mxPoint x="-35" y="840" />
            </Array>
          </mxGeometry>
        </mxCell>
        <mxCell id="FoAWJP59tls7MiWZvlNt-186" value="" style="ellipse;whiteSpace=wrap;html=1;aspect=fixed;" vertex="1" parent="1">
          <mxGeometry x="-55" y="855" width="10" height="10" as="geometry" />
        </mxCell>
        <mxCell id="FoAWJP59tls7MiWZvlNt-187" value="&lt;font style=&quot;font-size: 9px;&quot;&gt;Carico Attuale&lt;br&gt;&lt;/font&gt;" style="text;html=1;strokeColor=none;fillColor=none;align=center;verticalAlign=middle;whiteSpace=wrap;rounded=0;" vertex="1" parent="1">
          <mxGeometry x="-45" y="855" width="65" height="10" as="geometry" />
        </mxCell>
        <mxCell id="FoAWJP59tls7MiWZvlNt-200" style="edgeStyle=orthogonalEdgeStyle;shape=connector;rounded=0;orthogonalLoop=1;jettySize=auto;html=1;entryX=0.66;entryY=-0.03;entryDx=0;entryDy=0;entryPerimeter=0;labelBackgroundColor=default;strokeColor=#33FFFF;strokeWidth=2;fontFamily=Helvetica;fontSize=11;fontColor=default;endArrow=none;endFill=0;" edge="1" parent="1" source="FoAWJP59tls7MiWZvlNt-196" target="NKGvH9Crkrx0q5OSbga0-53">
          <mxGeometry relative="1" as="geometry" />
        </mxCell>
        <mxCell id="FoAWJP59tls7MiWZvlNt-196" value="" style="ellipse;whiteSpace=wrap;html=1;aspect=fixed;fillColor=#FFFFFF;" vertex="1" parent="1">
          <mxGeometry x="800" y="150" width="10" height="10" as="geometry" />
        </mxCell>
        <mxCell id="FoAWJP59tls7MiWZvlNt-197" value="&lt;font style=&quot;font-size: 9px;&quot;&gt;Email&lt;br&gt;&lt;/font&gt;" style="text;html=1;strokeColor=none;fillColor=none;align=center;verticalAlign=middle;whiteSpace=wrap;rounded=0;" vertex="1" parent="1">
          <mxGeometry x="810" y="150" width="35" height="10" as="geometry" />
        </mxCell>
        <mxCell id="FoAWJP59tls7MiWZvlNt-201" style="edgeStyle=orthogonalEdgeStyle;shape=connector;rounded=0;orthogonalLoop=1;jettySize=auto;html=1;entryX=0.972;entryY=0.04;entryDx=0;entryDy=0;entryPerimeter=0;labelBackgroundColor=default;strokeColor=#33FFFF;strokeWidth=2;fontFamily=Helvetica;fontSize=11;fontColor=default;endArrow=none;endFill=0;" edge="1" parent="1" source="FoAWJP59tls7MiWZvlNt-198" target="NKGvH9Crkrx0q5OSbga0-53">
          <mxGeometry relative="1" as="geometry">
            <Array as="points">
              <mxPoint x="815" y="180" />
              <mxPoint x="837" y="180" />
            </Array>
          </mxGeometry>
        </mxCell>
        <mxCell id="FoAWJP59tls7MiWZvlNt-198" value="" style="ellipse;whiteSpace=wrap;html=1;aspect=fixed;fillColor=#FFFFFF;" vertex="1" parent="1">
          <mxGeometry x="810" y="160" width="10" height="10" as="geometry" />
        </mxCell>
        <mxCell id="FoAWJP59tls7MiWZvlNt-199" value="&lt;font style=&quot;font-size: 9px;&quot;&gt;Password&lt;br&gt;&lt;/font&gt;" style="text;html=1;strokeColor=none;fillColor=none;align=center;verticalAlign=middle;whiteSpace=wrap;rounded=0;" vertex="1" parent="1">
          <mxGeometry x="820" y="160" width="45" height="10" as="geometry" />
        </mxCell>
        <mxCell id="FoAWJP59tls7MiWZvlNt-210" style="edgeStyle=orthogonalEdgeStyle;shape=connector;rounded=0;orthogonalLoop=1;jettySize=auto;html=1;entryX=0.356;entryY=0.03;entryDx=0;entryDy=0;entryPerimeter=0;labelBackgroundColor=default;strokeColor=#33FFFF;strokeWidth=2;fontFamily=Helvetica;fontSize=11;fontColor=default;endArrow=none;endFill=0;" edge="1" parent="1" source="FoAWJP59tls7MiWZvlNt-202" target="NKGvH9Crkrx0q5OSbga0-155">
          <mxGeometry relative="1" as="geometry" />
        </mxCell>
        <mxCell id="FoAWJP59tls7MiWZvlNt-202" value="" style="ellipse;whiteSpace=wrap;html=1;aspect=fixed;fillColor=#000000;" vertex="1" parent="1">
          <mxGeometry x="1140" width="10" height="10" as="geometry" />
        </mxCell>
        <mxCell id="FoAWJP59tls7MiWZvlNt-203" value="&lt;font style=&quot;font-size: 9px;&quot;&gt;IP&lt;br&gt;&lt;/font&gt;" style="text;html=1;strokeColor=none;fillColor=none;align=center;verticalAlign=middle;whiteSpace=wrap;rounded=0;" vertex="1" parent="1">
          <mxGeometry x="1150" width="20" height="10" as="geometry" />
        </mxCell>
        <mxCell id="FoAWJP59tls7MiWZvlNt-211" style="edgeStyle=orthogonalEdgeStyle;shape=connector;rounded=0;orthogonalLoop=1;jettySize=auto;html=1;entryX=0.452;entryY=0.01;entryDx=0;entryDy=0;entryPerimeter=0;labelBackgroundColor=default;strokeColor=#33FFFF;strokeWidth=2;fontFamily=Helvetica;fontSize=11;fontColor=default;endArrow=none;endFill=0;" edge="1" parent="1" source="FoAWJP59tls7MiWZvlNt-204" target="NKGvH9Crkrx0q5OSbga0-155">
          <mxGeometry relative="1" as="geometry" />
        </mxCell>
        <mxCell id="FoAWJP59tls7MiWZvlNt-204" value="" style="ellipse;whiteSpace=wrap;html=1;aspect=fixed;fillColor=#FFFFFF;" vertex="1" parent="1">
          <mxGeometry x="1150" y="10" width="10" height="10" as="geometry" />
        </mxCell>
        <mxCell id="FoAWJP59tls7MiWZvlNt-205" value="&lt;font style=&quot;font-size: 9px;&quot;&gt;Inizio&lt;br&gt;&lt;/font&gt;" style="text;html=1;strokeColor=none;fillColor=none;align=center;verticalAlign=middle;whiteSpace=wrap;rounded=0;" vertex="1" parent="1">
          <mxGeometry x="1160" y="10" width="30" height="10" as="geometry" />
        </mxCell>
        <mxCell id="FoAWJP59tls7MiWZvlNt-212" style="edgeStyle=orthogonalEdgeStyle;shape=connector;rounded=0;orthogonalLoop=1;jettySize=auto;html=1;entryX=0.552;entryY=0.01;entryDx=0;entryDy=0;entryPerimeter=0;labelBackgroundColor=default;strokeColor=#33FFFF;strokeWidth=2;fontFamily=Helvetica;fontSize=11;fontColor=default;endArrow=none;endFill=0;" edge="1" parent="1" source="FoAWJP59tls7MiWZvlNt-206" target="NKGvH9Crkrx0q5OSbga0-155">
          <mxGeometry relative="1" as="geometry" />
        </mxCell>
        <mxCell id="FoAWJP59tls7MiWZvlNt-206" value="" style="ellipse;whiteSpace=wrap;html=1;aspect=fixed;fillColor=#FFFFFF;" vertex="1" parent="1">
          <mxGeometry x="1160" y="20" width="10" height="10" as="geometry" />
        </mxCell>
        <mxCell id="FoAWJP59tls7MiWZvlNt-207" value="&lt;font style=&quot;font-size: 9px;&quot;&gt;Fine&lt;br&gt;&lt;/font&gt;" style="text;html=1;strokeColor=none;fillColor=none;align=center;verticalAlign=middle;whiteSpace=wrap;rounded=0;" vertex="1" parent="1">
          <mxGeometry x="1170" y="20" width="30" height="10" as="geometry" />
        </mxCell>
        <mxCell id="FoAWJP59tls7MiWZvlNt-213" style="edgeStyle=orthogonalEdgeStyle;shape=connector;rounded=0;orthogonalLoop=1;jettySize=auto;html=1;entryX=0.664;entryY=-0.03;entryDx=0;entryDy=0;entryPerimeter=0;labelBackgroundColor=default;strokeColor=#33FFFF;strokeWidth=2;fontFamily=Helvetica;fontSize=11;fontColor=default;endArrow=none;endFill=0;" edge="1" parent="1" source="FoAWJP59tls7MiWZvlNt-208" target="NKGvH9Crkrx0q5OSbga0-155">
          <mxGeometry relative="1" as="geometry" />
        </mxCell>
        <mxCell id="FoAWJP59tls7MiWZvlNt-208" value="" style="ellipse;whiteSpace=wrap;html=1;aspect=fixed;fillColor=#FFFFFF;" vertex="1" parent="1">
          <mxGeometry x="1170" y="30" width="10" height="10" as="geometry" />
        </mxCell>
        <mxCell id="FoAWJP59tls7MiWZvlNt-209" value="&lt;font style=&quot;font-size: 9px;&quot;&gt;Hardware&lt;br&gt;&lt;/font&gt;" style="text;html=1;strokeColor=none;fillColor=none;align=center;verticalAlign=middle;whiteSpace=wrap;rounded=0;" vertex="1" parent="1">
          <mxGeometry x="1180" y="30" width="45" height="10" as="geometry" />
        </mxCell>
        <mxCell id="FoAWJP59tls7MiWZvlNt-218" style="edgeStyle=orthogonalEdgeStyle;shape=connector;rounded=0;orthogonalLoop=1;jettySize=auto;html=1;entryX=0.448;entryY=0.04;entryDx=0;entryDy=0;entryPerimeter=0;labelBackgroundColor=default;strokeColor=#33FFFF;strokeWidth=2;fontFamily=Helvetica;fontSize=11;fontColor=default;endArrow=none;endFill=0;" edge="1" parent="1" source="FoAWJP59tls7MiWZvlNt-214" target="NKGvH9Crkrx0q5OSbga0-177">
          <mxGeometry relative="1" as="geometry" />
        </mxCell>
        <mxCell id="FoAWJP59tls7MiWZvlNt-214" value="" style="ellipse;whiteSpace=wrap;html=1;aspect=fixed;fillColor=#000000;" vertex="1" parent="1">
          <mxGeometry x="1150" y="110" width="10" height="10" as="geometry" />
        </mxCell>
        <mxCell id="FoAWJP59tls7MiWZvlNt-215" value="&lt;font style=&quot;font-size: 9px;&quot;&gt;ID&lt;br&gt;&lt;/font&gt;" style="text;html=1;strokeColor=none;fillColor=none;align=center;verticalAlign=middle;whiteSpace=wrap;rounded=0;" vertex="1" parent="1">
          <mxGeometry x="1160" y="110" width="20" height="10" as="geometry" />
        </mxCell>
        <mxCell id="FoAWJP59tls7MiWZvlNt-219" style="edgeStyle=orthogonalEdgeStyle;shape=connector;rounded=0;orthogonalLoop=1;jettySize=auto;html=1;entryX=0.572;entryY=0.01;entryDx=0;entryDy=0;entryPerimeter=0;labelBackgroundColor=default;strokeColor=#33FFFF;strokeWidth=2;fontFamily=Helvetica;fontSize=11;fontColor=default;endArrow=none;endFill=0;" edge="1" parent="1" source="FoAWJP59tls7MiWZvlNt-216" target="NKGvH9Crkrx0q5OSbga0-177">
          <mxGeometry relative="1" as="geometry" />
        </mxCell>
        <mxCell id="FoAWJP59tls7MiWZvlNt-216" value="" style="ellipse;whiteSpace=wrap;html=1;aspect=fixed;fillColor=#FFFFFF;" vertex="1" parent="1">
          <mxGeometry x="1160" y="120" width="10" height="10" as="geometry" />
        </mxCell>
        <mxCell id="FoAWJP59tls7MiWZvlNt-217" value="&lt;font style=&quot;font-size: 9px;&quot;&gt;Data&lt;br&gt;&lt;/font&gt;" style="text;html=1;strokeColor=none;fillColor=none;align=center;verticalAlign=middle;whiteSpace=wrap;rounded=0;" vertex="1" parent="1">
          <mxGeometry x="1170" y="120" width="30" height="10" as="geometry" />
        </mxCell>
        <mxCell id="FoAWJP59tls7MiWZvlNt-229" style="edgeStyle=orthogonalEdgeStyle;shape=connector;rounded=0;orthogonalLoop=1;jettySize=auto;html=1;entryX=0.444;entryY=1.04;entryDx=0;entryDy=0;entryPerimeter=0;labelBackgroundColor=default;strokeColor=#33FFFF;strokeWidth=2;fontFamily=Helvetica;fontSize=11;fontColor=default;endArrow=none;endFill=0;" edge="1" parent="1" source="FoAWJP59tls7MiWZvlNt-224" target="NKGvH9Crkrx0q5OSbga0-176">
          <mxGeometry relative="1" as="geometry" />
        </mxCell>
        <mxCell id="FoAWJP59tls7MiWZvlNt-224" value="" style="ellipse;whiteSpace=wrap;html=1;aspect=fixed;" vertex="1" parent="1">
          <mxGeometry x="1150" y="440" width="10" height="10" as="geometry" />
        </mxCell>
        <mxCell id="FoAWJP59tls7MiWZvlNt-225" value="&lt;font style=&quot;font-size: 9px;&quot;&gt;Carta di Credito&lt;br&gt;&lt;/font&gt;" style="text;html=1;strokeColor=none;fillColor=none;align=center;verticalAlign=middle;whiteSpace=wrap;rounded=0;" vertex="1" parent="1">
          <mxGeometry x="1160" y="440" width="70" height="10" as="geometry" />
        </mxCell>
        <mxCell id="FoAWJP59tls7MiWZvlNt-228" style="edgeStyle=orthogonalEdgeStyle;shape=connector;rounded=0;orthogonalLoop=1;jettySize=auto;html=1;entryX=0.576;entryY=1.05;entryDx=0;entryDy=0;entryPerimeter=0;labelBackgroundColor=default;strokeColor=#33FFFF;strokeWidth=2;fontFamily=Helvetica;fontSize=11;fontColor=default;endArrow=none;endFill=0;" edge="1" parent="1" source="FoAWJP59tls7MiWZvlNt-226" target="NKGvH9Crkrx0q5OSbga0-176">
          <mxGeometry relative="1" as="geometry" />
        </mxCell>
        <mxCell id="FoAWJP59tls7MiWZvlNt-226" value="" style="ellipse;whiteSpace=wrap;html=1;aspect=fixed;" vertex="1" parent="1">
          <mxGeometry x="1162.5" y="430" width="10" height="10" as="geometry" />
        </mxCell>
        <mxCell id="FoAWJP59tls7MiWZvlNt-227" value="&lt;font style=&quot;font-size: 9px;&quot;&gt;Data&lt;br&gt;&lt;/font&gt;" style="text;html=1;strokeColor=none;fillColor=none;align=center;verticalAlign=middle;whiteSpace=wrap;rounded=0;" vertex="1" parent="1">
          <mxGeometry x="1172.5" y="430" width="27.5" height="10" as="geometry" />
        </mxCell>
        <mxCell id="FoAWJP59tls7MiWZvlNt-232" style="edgeStyle=orthogonalEdgeStyle;shape=connector;rounded=0;orthogonalLoop=1;jettySize=auto;html=1;labelBackgroundColor=default;strokeColor=#33FFFF;strokeWidth=2;fontFamily=Helvetica;fontSize=11;fontColor=default;endArrow=none;endFill=0;" edge="1" parent="1" source="FoAWJP59tls7MiWZvlNt-231">
          <mxGeometry relative="1" as="geometry">
            <mxPoint x="1140" y="355" as="targetPoint" />
          </mxGeometry>
        </mxCell>
        <mxCell id="FoAWJP59tls7MiWZvlNt-231" value="" style="ellipse;whiteSpace=wrap;html=1;aspect=fixed;fillColor=#000000;" vertex="1" parent="1">
          <mxGeometry x="1180" y="350" width="10" height="10" as="geometry" />
        </mxCell>
        <mxCell id="FoAWJP59tls7MiWZvlNt-242" style="edgeStyle=orthogonalEdgeStyle;shape=connector;rounded=0;orthogonalLoop=1;jettySize=auto;html=1;labelBackgroundColor=default;strokeColor=#33FFFF;strokeWidth=2;fontFamily=Helvetica;fontSize=11;fontColor=default;endArrow=none;endFill=0;" edge="1" parent="1" source="FoAWJP59tls7MiWZvlNt-234">
          <mxGeometry relative="1" as="geometry">
            <mxPoint x="1025" y="580" as="targetPoint" />
          </mxGeometry>
        </mxCell>
        <mxCell id="FoAWJP59tls7MiWZvlNt-234" value="" style="ellipse;whiteSpace=wrap;html=1;aspect=fixed;fillColor=#FFFFFF;" vertex="1" parent="1">
          <mxGeometry x="1020" y="630" width="10" height="10" as="geometry" />
        </mxCell>
        <mxCell id="FoAWJP59tls7MiWZvlNt-245" style="edgeStyle=orthogonalEdgeStyle;shape=connector;rounded=0;orthogonalLoop=1;jettySize=auto;html=1;entryX=0.551;entryY=1.047;entryDx=0;entryDy=0;entryPerimeter=0;labelBackgroundColor=default;strokeColor=#33FFFF;strokeWidth=2;fontFamily=Helvetica;fontSize=11;fontColor=default;endArrow=none;endFill=0;" edge="1" parent="1" source="FoAWJP59tls7MiWZvlNt-235" target="NKGvH9Crkrx0q5OSbga0-161">
          <mxGeometry relative="1" as="geometry" />
        </mxCell>
        <mxCell id="FoAWJP59tls7MiWZvlNt-235" value="" style="ellipse;whiteSpace=wrap;html=1;aspect=fixed;" vertex="1" parent="1">
          <mxGeometry x="1030" y="620" width="10" height="10" as="geometry" />
        </mxCell>
        <mxCell id="FoAWJP59tls7MiWZvlNt-244" style="edgeStyle=orthogonalEdgeStyle;shape=connector;rounded=0;orthogonalLoop=1;jettySize=auto;html=1;entryX=0.655;entryY=1.047;entryDx=0;entryDy=0;entryPerimeter=0;labelBackgroundColor=default;strokeColor=#33FFFF;strokeWidth=2;fontFamily=Helvetica;fontSize=11;fontColor=default;endArrow=none;endFill=0;" edge="1" parent="1" source="FoAWJP59tls7MiWZvlNt-236" target="NKGvH9Crkrx0q5OSbga0-161">
          <mxGeometry relative="1" as="geometry" />
        </mxCell>
        <mxCell id="FoAWJP59tls7MiWZvlNt-236" value="" style="ellipse;whiteSpace=wrap;html=1;aspect=fixed;" vertex="1" parent="1">
          <mxGeometry x="1040" y="610" width="10" height="10" as="geometry" />
        </mxCell>
        <mxCell id="FoAWJP59tls7MiWZvlNt-243" style="edgeStyle=orthogonalEdgeStyle;shape=connector;rounded=0;orthogonalLoop=1;jettySize=auto;html=1;entryX=0.75;entryY=1;entryDx=0;entryDy=0;labelBackgroundColor=default;strokeColor=#33FFFF;strokeWidth=2;fontFamily=Helvetica;fontSize=11;fontColor=default;endArrow=none;endFill=0;" edge="1" parent="1" source="FoAWJP59tls7MiWZvlNt-237" target="NKGvH9Crkrx0q5OSbga0-161">
          <mxGeometry relative="1" as="geometry" />
        </mxCell>
        <mxCell id="FoAWJP59tls7MiWZvlNt-237" value="" style="ellipse;whiteSpace=wrap;html=1;aspect=fixed;" vertex="1" parent="1">
          <mxGeometry x="1050" y="600" width="10" height="10" as="geometry" />
        </mxCell>
        <mxCell id="FoAWJP59tls7MiWZvlNt-238" value="&lt;font style=&quot;font-size: 9px;&quot;&gt;Definizione&lt;br&gt;&lt;/font&gt;" style="text;html=1;strokeColor=none;fillColor=none;align=center;verticalAlign=middle;whiteSpace=wrap;rounded=0;" vertex="1" parent="1">
          <mxGeometry x="1030" y="630" width="50" height="10" as="geometry" />
        </mxCell>
        <mxCell id="FoAWJP59tls7MiWZvlNt-239" value="&lt;font style=&quot;font-size: 9px;&quot;&gt;Offline&lt;br&gt;&lt;/font&gt;" style="text;html=1;strokeColor=none;fillColor=none;align=center;verticalAlign=middle;whiteSpace=wrap;rounded=0;" vertex="1" parent="1">
          <mxGeometry x="1040" y="620" width="30" height="10" as="geometry" />
        </mxCell>
        <mxCell id="FoAWJP59tls7MiWZvlNt-240" value="&lt;font style=&quot;font-size: 9px;&quot;&gt;Max Ore&lt;br&gt;&lt;/font&gt;" style="text;html=1;strokeColor=none;fillColor=none;align=center;verticalAlign=middle;whiteSpace=wrap;rounded=0;" vertex="1" parent="1">
          <mxGeometry x="1050" y="610" width="40" height="10" as="geometry" />
        </mxCell>
        <mxCell id="FoAWJP59tls7MiWZvlNt-241" value="&lt;font style=&quot;font-size: 9px;&quot;&gt;GB Mensili&lt;br&gt;&lt;/font&gt;" style="text;html=1;strokeColor=none;fillColor=none;align=center;verticalAlign=middle;whiteSpace=wrap;rounded=0;" vertex="1" parent="1">
          <mxGeometry x="1060" y="600" width="50" height="10" as="geometry" />
        </mxCell>
        <mxCell id="FoAWJP59tls7MiWZvlNt-252" style="edgeStyle=orthogonalEdgeStyle;shape=connector;rounded=0;orthogonalLoop=1;jettySize=auto;html=1;entryX=1.012;entryY=0.14;entryDx=0;entryDy=0;entryPerimeter=0;labelBackgroundColor=default;strokeColor=#33FFFF;strokeWidth=2;fontFamily=Helvetica;fontSize=11;fontColor=default;endArrow=none;endFill=0;" edge="1" parent="1" source="FoAWJP59tls7MiWZvlNt-246" target="NKGvH9Crkrx0q5OSbga0-161">
          <mxGeometry relative="1" as="geometry" />
        </mxCell>
        <mxCell id="FoAWJP59tls7MiWZvlNt-246" value="" style="ellipse;whiteSpace=wrap;html=1;aspect=fixed;fillColor=#000000;" vertex="1" parent="1">
          <mxGeometry x="1100" y="540" width="10" height="10" as="geometry" />
        </mxCell>
        <mxCell id="FoAWJP59tls7MiWZvlNt-247" value="&lt;font style=&quot;font-size: 9px;&quot;&gt;Tipo&lt;br&gt;&lt;/font&gt;" style="text;html=1;strokeColor=none;fillColor=none;align=center;verticalAlign=middle;whiteSpace=wrap;rounded=0;" vertex="1" parent="1">
          <mxGeometry x="1115" y="540" width="20" height="10" as="geometry" />
        </mxCell>
        <mxCell id="FoAWJP59tls7MiWZvlNt-253" style="edgeStyle=orthogonalEdgeStyle;shape=connector;rounded=0;orthogonalLoop=1;jettySize=auto;html=1;entryX=1;entryY=0.5;entryDx=0;entryDy=0;labelBackgroundColor=default;strokeColor=#33FFFF;strokeWidth=2;fontFamily=Helvetica;fontSize=11;fontColor=default;endArrow=none;endFill=0;" edge="1" parent="1" source="FoAWJP59tls7MiWZvlNt-248" target="NKGvH9Crkrx0q5OSbga0-161">
          <mxGeometry relative="1" as="geometry" />
        </mxCell>
        <mxCell id="FoAWJP59tls7MiWZvlNt-248" value="" style="ellipse;whiteSpace=wrap;html=1;aspect=fixed;fillColor=#FFFFFF;" vertex="1" parent="1">
          <mxGeometry x="1100" y="555" width="10" height="10" as="geometry" />
        </mxCell>
        <mxCell id="FoAWJP59tls7MiWZvlNt-249" value="&lt;font style=&quot;font-size: 9px;&quot;&gt;Tariffa&lt;br&gt;&lt;/font&gt;" style="text;html=1;strokeColor=none;fillColor=none;align=center;verticalAlign=middle;whiteSpace=wrap;rounded=0;" vertex="1" parent="1">
          <mxGeometry x="1110" y="555" width="40" height="10" as="geometry" />
        </mxCell>
        <mxCell id="FoAWJP59tls7MiWZvlNt-254" style="edgeStyle=orthogonalEdgeStyle;shape=connector;rounded=0;orthogonalLoop=1;jettySize=auto;html=1;entryX=1;entryY=0.91;entryDx=0;entryDy=0;entryPerimeter=0;labelBackgroundColor=default;strokeColor=#33FFFF;strokeWidth=2;fontFamily=Helvetica;fontSize=11;fontColor=default;endArrow=none;endFill=0;" edge="1" parent="1" source="FoAWJP59tls7MiWZvlNt-250" target="NKGvH9Crkrx0q5OSbga0-161">
          <mxGeometry relative="1" as="geometry" />
        </mxCell>
        <mxCell id="FoAWJP59tls7MiWZvlNt-250" value="" style="ellipse;whiteSpace=wrap;html=1;aspect=fixed;fillColor=#FFFFFF;" vertex="1" parent="1">
          <mxGeometry x="1100" y="570" width="10" height="10" as="geometry" />
        </mxCell>
        <mxCell id="FoAWJP59tls7MiWZvlNt-251" value="&lt;font style=&quot;font-size: 9px;&quot;&gt;Durata&lt;br&gt;&lt;/font&gt;" style="text;html=1;strokeColor=none;fillColor=none;align=center;verticalAlign=middle;whiteSpace=wrap;rounded=0;" vertex="1" parent="1">
          <mxGeometry x="1110" y="570" width="40" height="10" as="geometry" />
        </mxCell>
        <mxCell id="FoAWJP59tls7MiWZvlNt-255" value="&lt;font style=&quot;font-size: 15px;&quot;&gt;Visualizzazione&lt;/font&gt;" style="rounded=1;arcSize=10;whiteSpace=wrap;html=1;align=center;strokeWidth=3;strokeColor=#33FFFF;" vertex="1" parent="1">
          <mxGeometry x="840" y="430" width="120" height="40" as="geometry" />
        </mxCell>
        <mxCell id="FoAWJP59tls7MiWZvlNt-260" style="edgeStyle=orthogonalEdgeStyle;shape=connector;rounded=0;orthogonalLoop=1;jettySize=auto;html=1;entryX=0.539;entryY=1.058;entryDx=0;entryDy=0;entryPerimeter=0;labelBackgroundColor=default;strokeColor=#33FFFF;strokeWidth=2;fontFamily=Helvetica;fontSize=11;fontColor=default;endArrow=none;endFill=0;" edge="1" parent="1" source="FoAWJP59tls7MiWZvlNt-258" target="FoAWJP59tls7MiWZvlNt-255">
          <mxGeometry relative="1" as="geometry" />
        </mxCell>
        <mxCell id="FoAWJP59tls7MiWZvlNt-258" value="" style="ellipse;whiteSpace=wrap;html=1;aspect=fixed;fillColor=#000000;" vertex="1" parent="1">
          <mxGeometry x="900" y="490" width="10" height="10" as="geometry" />
        </mxCell>
        <mxCell id="FoAWJP59tls7MiWZvlNt-259" value="&lt;font style=&quot;font-size: 9px;&quot;&gt;ID&lt;br&gt;&lt;/font&gt;" style="text;html=1;strokeColor=none;fillColor=none;align=center;verticalAlign=middle;whiteSpace=wrap;rounded=0;" vertex="1" parent="1">
          <mxGeometry x="910" y="490" width="20" height="10" as="geometry" />
        </mxCell>
        <mxCell id="FoAWJP59tls7MiWZvlNt-264" style="edgeStyle=orthogonalEdgeStyle;shape=connector;rounded=0;orthogonalLoop=1;jettySize=auto;html=1;entryX=1.016;entryY=0.621;entryDx=0;entryDy=0;entryPerimeter=0;labelBackgroundColor=default;strokeColor=#33FFFF;strokeWidth=2;fontFamily=Helvetica;fontSize=11;fontColor=default;endArrow=none;endFill=0;" edge="1" parent="1" source="FoAWJP59tls7MiWZvlNt-261" target="NKGvH9Crkrx0q5OSbga0-53">
          <mxGeometry relative="1" as="geometry">
            <Array as="points">
              <mxPoint x="900" y="205" />
            </Array>
          </mxGeometry>
        </mxCell>
        <mxCell id="FoAWJP59tls7MiWZvlNt-265" style="edgeStyle=orthogonalEdgeStyle;shape=connector;rounded=0;orthogonalLoop=1;jettySize=auto;html=1;entryX=0.5;entryY=0;entryDx=0;entryDy=0;labelBackgroundColor=default;strokeColor=#33FFFF;strokeWidth=2;fontFamily=Helvetica;fontSize=11;fontColor=default;endArrow=none;endFill=0;" edge="1" parent="1" source="FoAWJP59tls7MiWZvlNt-261" target="FoAWJP59tls7MiWZvlNt-255">
          <mxGeometry relative="1" as="geometry" />
        </mxCell>
        <mxCell id="FoAWJP59tls7MiWZvlNt-261" value="&lt;font style=&quot;font-size: 12px;&quot;&gt;Visualizzazione&lt;br&gt;Utente&lt;br&gt;&lt;/font&gt;" style="shape=rhombus;perimeter=rhombusPerimeter;whiteSpace=wrap;html=1;align=center;strokeWidth=3;strokeColor=#33FFFF;" vertex="1" parent="1">
          <mxGeometry x="840" y="315" width="120" height="60" as="geometry" />
        </mxCell>
        <mxCell id="FoAWJP59tls7MiWZvlNt-262" value="&lt;font style=&quot;font-size: 15px;&quot;&gt;(1, 1)&lt;/font&gt;" style="text;html=1;strokeColor=none;fillColor=none;align=center;verticalAlign=middle;whiteSpace=wrap;rounded=0;" vertex="1" parent="1">
          <mxGeometry x="900" y="360" width="60" height="30" as="geometry" />
        </mxCell>
        <mxCell id="FoAWJP59tls7MiWZvlNt-263" value="&lt;font style=&quot;font-size: 15px;&quot;&gt;(0, N)&lt;/font&gt;" style="text;html=1;strokeColor=none;fillColor=none;align=center;verticalAlign=middle;whiteSpace=wrap;rounded=0;" vertex="1" parent="1">
          <mxGeometry x="900" y="290" width="60" height="30" as="geometry" />
        </mxCell>
        <mxCell id="FoAWJP59tls7MiWZvlNt-269" style="edgeStyle=orthogonalEdgeStyle;shape=connector;rounded=0;orthogonalLoop=1;jettySize=auto;html=1;entryX=0;entryY=0.5;entryDx=0;entryDy=0;labelBackgroundColor=default;strokeColor=#33FFFF;strokeWidth=2;fontFamily=Helvetica;fontSize=11;fontColor=default;endArrow=none;endFill=0;" edge="1" parent="1" source="FoAWJP59tls7MiWZvlNt-266" target="FoAWJP59tls7MiWZvlNt-255">
          <mxGeometry relative="1" as="geometry" />
        </mxCell>
        <mxCell id="FoAWJP59tls7MiWZvlNt-270" style="edgeStyle=orthogonalEdgeStyle;shape=connector;rounded=1;orthogonalLoop=1;jettySize=auto;html=1;entryX=0.917;entryY=0.004;entryDx=0;entryDy=0;entryPerimeter=0;labelBackgroundColor=default;strokeColor=#33FFFF;strokeWidth=2;fontFamily=Helvetica;fontSize=11;fontColor=default;endArrow=none;endFill=0;" edge="1" parent="1" source="FoAWJP59tls7MiWZvlNt-266" target="NKGvH9Crkrx0q5OSbga0-9">
          <mxGeometry relative="1" as="geometry">
            <Array as="points">
              <mxPoint x="450" y="450" />
              <mxPoint x="450" y="630" />
              <mxPoint x="367" y="630" />
            </Array>
          </mxGeometry>
        </mxCell>
        <mxCell id="FoAWJP59tls7MiWZvlNt-266" value="&lt;font style=&quot;font-size: 12px;&quot;&gt;Visualizzazione&lt;br&gt;File&lt;br&gt;&lt;/font&gt;" style="shape=rhombus;perimeter=rhombusPerimeter;whiteSpace=wrap;html=1;align=center;strokeWidth=3;strokeColor=#33FFFF;" vertex="1" parent="1">
          <mxGeometry x="630" y="420" width="120" height="60" as="geometry" />
        </mxCell>
        <mxCell id="FoAWJP59tls7MiWZvlNt-267" value="&lt;font style=&quot;font-size: 15px;&quot;&gt;(1, 1)&lt;/font&gt;" style="text;html=1;strokeColor=none;fillColor=none;align=center;verticalAlign=middle;whiteSpace=wrap;rounded=0;" vertex="1" parent="1">
          <mxGeometry x="730" y="420" width="60" height="30" as="geometry" />
        </mxCell>
        <mxCell id="FoAWJP59tls7MiWZvlNt-268" value="&lt;font style=&quot;font-size: 15px;&quot;&gt;(0, N)&lt;/font&gt;" style="text;html=1;strokeColor=none;fillColor=none;align=center;verticalAlign=middle;whiteSpace=wrap;rounded=0;" vertex="1" parent="1">
          <mxGeometry x="585" y="420" width="60" height="30" as="geometry" />
        </mxCell>
      </root>
    </mxGraphModel>
  </diagram>
  <diagram id="ExP9dLtlNMY0TJ7zyRKh" name="Page-2">
    <mxGraphModel grid="1" page="1" gridSize="10" guides="1" tooltips="1" connect="1" arrows="1" fold="1" pageScale="1" pageWidth="827" pageHeight="1169" math="0" shadow="0">
      <root>
        <mxCell id="0" />
        <mxCell id="1" parent="0" />
      </root>
    </mxGraphModel>
  </diagram>
  <diagram id="b0iYBFz420I9QDzgk69d" name="Page-3">
    <mxGraphModel grid="1" page="1" gridSize="10" guides="1" tooltips="1" connect="1" arrows="1" fold="1" pageScale="1" pageWidth="827" pageHeight="1169" math="0" shadow="0">
      <root>
        <mxCell id="0" />
        <mxCell id="1" parent="0" />
      </root>
    </mxGraphModel>
  </diagram>
</mxfile>
